<svg xmlns="http://www.w3.org/2000/svg" xmlns:xlink="http://www.w3.org/1999/xlink" width="2560" height="1765" viewBox="0 0 2560 1765"><symbol id="a" viewBox="-88 -88 176 176"><path fill="#999" d="M66-88h22V88H66zM-88 88V66H88v22zM-66 88h-22V-88h22zM44-88v22H-88v-22zM44-66v22H-88v-22zM22-88h22V44H22zM44 22v22h-88V22zM-44-22h22v66h-22zM-44 0v-22H0V0z"/></symbol><symbol id="b" viewBox="-88 -88 176 176"><path fill="#999" d="M66-88h22V88H66zM44-88h22V0H44zM22-66h22V0H22zM0-88h22v66H0zM-22-88H0v66h-22zM-44 88h-22V-88h22zM0 88h-22V0H0zM-22 66h-22V0h22zM22 88H0V22h22zM44 88H22V22h22zM-66 88h-22V-88h22z"/></symbol><symbol id="d" viewBox="-88 -88 176 176"><path fill="#999" d="M66-44h22V88H66zM-22 88V66h44v22zM-22 66V44h44v22zM-66 88h-22V-44h22zM88-88v22H-88v-22zM22-66v22h-44v-22zM88-44v22H-88v-22zM88 0v22H-88V0zM88 66v22H44V66zM-44 66v22h-44V66z"/></symbol><symbol id="c" viewBox="-88 -88 176 176"><path fill="#999" d="M66-88h22V88H66zM44-88h22V22H44zM22-88h22v44H22zM0-88h22v22H0zM-22-88H0v44h-22zM-44 88h-22V-22h22zM0 88h-22V66H0zM-22 88h-22V44h22zM22 88H0V44h22zM44 88H22V44h22zM-66 88h-22V-88h22zM-44-88h22v44h-22zM0-22h22v44H0zM-22-22H0v44h-22z"/></symbol><symbol id="e" viewBox="-88 -88 176 176"><path fill="#999" d="M66-88h22V88H66zM44 22h22v66H44zM22-88h22V0H22zM0-88h22V88H0zM-44 88h-22V-44h22zM0 88h-22V-88H0zM-66 88h-22V-44h22zM-44-66h-22v-22h22zM-66-66h-22v-22h22z"/></symbol><symbol id="f" viewBox="-88.001 -88 176.001 176"><path fill="#999" d="M66-88h22V88H66zM-88 88V66H88v22zM-88 66V44H88v22zM-66 88h-22V-88h22zM88 22v22H-88V22zM0-88h22V88H0zM44-88h22V0H44zM-66-88h22V0h-22zM-22-88H0V88h-22z"/></symbol><path fill="#1B1B1B" d="M0 0h2560v1765H0z"/><g opacity=".05"><use xlink:href="#a" width="176" height="176" x="-88" y="-88" transform="matrix(.614 0 0 -.614 1639.169 1274.824)" overflow="visible"/><use xlink:href="#a" width="176" height="176" x="-88" y="-88" transform="matrix(.614 0 0 -.614 2061.169 882.5)" overflow="visible"/><use xlink:href="#a" width="176" height="176" x="-88" y="-88" transform="matrix(.614 0 0 -.614 2339.169 1315.324)" overflow="visible"/><use xlink:href="#a" width="176" height="176" x="-88" y="-88" transform="matrix(.614 0 0 -.614 2128.919 561.324)" overflow="visible"/><use xlink:href="#a" width="176" height="176" x="-88" y="-88" transform="matrix(.614 0 0 -.614 1461.454 438.331)" overflow="visible"/><use xlink:href="#a" width="176" height="176" x="-88" y="-88" transform="matrix(.614 0 0 -.614 729.991 291.838)" overflow="visible"/><use xlink:href="#a" width="176" height="176" x="-88" y="-88" transform="matrix(.614 0 0 -.614 70.024 677.319)" overflow="visible"/><use xlink:href="#a" width="176" height="176" x="-88" y="-88" transform="matrix(.614 0 0 -.614 1884.433 126.346)" overflow="visible"/><use xlink:href="#a" width="176" height="176" x="-88" y="-88" transform="matrix(.614 0 0 -.614 1968.169 1697)" overflow="visible"/><use xlink:href="#a" width="176" height="176" x="-88" y="-88" transform="matrix(.614 0 0 -.614 1238.169 1621.824)" overflow="visible"/><use xlink:href="#a" width="176" height="176" x="-88" y="-88" transform="matrix(.614 0 0 -.614 542.169 1479.824)" overflow="visible"/><use xlink:href="#a" width="176" height="176" x="-88" y="-88" transform="matrix(.614 0 0 -.614 258.169 1439.574)" overflow="visible"/><use xlink:href="#a" width="176" height="176" x="-88" y="-88" transform="matrix(.614 0 0 -.614 631.169 1147.824)" overflow="visible"/><use xlink:href="#a" width="176" height="176" x="-88" y="-88" transform="matrix(.614 0 0 -.614 515.169 804.342)" overflow="visible"/><use xlink:href="#a" width="176" height="176" x="-88" y="-88" transform="matrix(.614 0 0 -.614 1360.203 834.342)" overflow="visible"/><use xlink:href="#a" width="176" height="176" x="-88" y="-88" transform="matrix(.614 0 0 -.614 1066.147 763.842)" overflow="visible"/><use xlink:href="#b" width="176" height="176" x="-88" y="-88" transform="matrix(0 -.614 -.614 0 940.517 1206.074)" overflow="visible"/><use xlink:href="#b" width="176" height="176" x="-88" y="-88" transform="matrix(0 -.614 -.614 0 850.517 1497.574)" overflow="visible"/><use xlink:href="#b" width="176" height="176" x="-88" y="-88" transform="matrix(0 -.614 -.614 0 1508.517 1695.574)" overflow="visible"/><use xlink:href="#b" width="176" height="176" x="-88" y="-88" transform="matrix(0 -.614 -.614 0 2114.517 1543.574)" overflow="visible"/><use xlink:href="#b" width="176" height="176" x="-88" y="-88" transform="matrix(0 -.614 -.614 0 2366.169 953.574)" overflow="visible"/><use xlink:href="#b" width="176" height="176" x="-88" y="-88" transform="matrix(0 -.614 -.614 0 1946.169 754.574)" overflow="visible"/><use xlink:href="#b" width="176" height="176" x="-88" y="-88" transform="matrix(0 -.614 -.614 0 601.24 624.081)" overflow="visible"/><use xlink:href="#b" width="176" height="176" x="-88" y="-88" transform="matrix(0 -.614 -.614 0 56.524 1513.574)" overflow="visible"/><use xlink:href="#b" width="176" height="176" x="-88" y="-88" transform="matrix(0 -.614 -.614 0 1250.204 671.073)" overflow="visible"/><use xlink:href="#b" width="176" height="176" x="-88" y="-88" transform="matrix(0 -.614 -.614 0 1666.169 849.5)" overflow="visible"/><use xlink:href="#b" width="176" height="176" x="-88" y="-88" transform="matrix(0 -.614 -.614 0 91.761 318.838)" overflow="visible"/><use xlink:href="#b" width="176" height="176" x="-88" y="-88" transform="matrix(0 -.614 -.614 0 286.752 1019.574)" overflow="visible"/><use xlink:href="#b" width="176" height="176" x="-88" y="-88" transform="matrix(0 -.614 -.614 0 855.141 1028.575)" overflow="visible"/><use xlink:href="#b" width="176" height="176" x="-88" y="-88" transform="matrix(0 -.614 -.614 0 1421.517 1510.074)" overflow="visible"/><use xlink:href="#c" width="176" height="176" x="-88" y="-88" transform="matrix(0 -.614 -.614 0 1429.484 1103.486)" overflow="visible"/><use xlink:href="#c" width="176" height="176" x="-88" y="-88" transform="matrix(0 -.614 -.614 0 2130.484 1140.486)" overflow="visible"/><use xlink:href="#c" width="176" height="176" x="-88" y="-88" transform="matrix(0 -.614 -.614 0 2393.169 1676.75)" overflow="visible"/><use xlink:href="#c" width="176" height="176" x="-88" y="-88" transform="matrix(0 -.614 -.614 0 124.024 1683.5)" overflow="visible"/><use xlink:href="#c" width="176" height="176" x="-88" y="-88" transform="matrix(0 -.614 -.614 0 1900.484 882.5)" overflow="visible"/><use xlink:href="#c" width="176" height="176" x="-88" y="-88" transform="matrix(0 -.614 -.614 0 2476.542 595.074)" overflow="visible"/><use xlink:href="#c" width="176" height="176" x="-88" y="-88" transform="matrix(0 -.614 -.614 0 1115.517 268.03)" overflow="visible"/><use xlink:href="#c" width="176" height="176" x="-88" y="-88" transform="matrix(0 -.614 -.614 0 528.63 121.628)" overflow="visible"/><use xlink:href="#c" width="176" height="176" x="-88" y="-88" transform="matrix(0 -.614 -.614 0 332.14 285.088)" overflow="visible"/><use xlink:href="#c" width="176" height="176" x="-88" y="-88" transform="matrix(0 -.614 -.614 0 864.613 623.319)" overflow="visible"/><use xlink:href="#c" width="176" height="176" x="-88" y="-88" transform="matrix(0 -.614 -.614 0 1939.919 386.363)" overflow="visible"/><use xlink:href="#c" width="176" height="176" x="-88" y="-88" transform="matrix(0 -.614 -.614 0 1660.935 54)" overflow="visible"/><use xlink:href="#c" width="176" height="176" x="-88" y="-88" transform="matrix(0 -.614 -.614 0 1194.151 1184.82)" overflow="visible"/><use xlink:href="#c" width="176" height="176" x="-88" y="-88" transform="matrix(0 -.614 -.614 0 1740.419 1669.074)" overflow="visible"/><use xlink:href="#c" width="176" height="176" x="-88" y="-88" transform="matrix(0 -.614 -.614 0 515.169 1029.824)" overflow="visible"/><use xlink:href="#c" width="176" height="176" x="-88" y="-88" transform="matrix(0 -.614 -.614 0 1104.151 1520.574)" overflow="visible"/><use xlink:href="#d" width="176" height="176" x="-88" y="-88" transform="matrix(-.614 0 0 .614 1455 1275.824)" overflow="visible"/><use xlink:href="#d" width="176" height="176" x="-88" y="-88" transform="matrix(-.614 0 0 .614 1225.014 1395.818)" overflow="visible"/><use xlink:href="#d" width="176" height="176" x="-88" y="-88" transform="matrix(-.614 0 0 .614 515.169 1270.818)" overflow="visible"/><use xlink:href="#d" width="176" height="176" x="-88" y="-88" transform="matrix(-.614 0 0 .614 1092.014 1704.818)" overflow="visible"/><use xlink:href="#d" width="176" height="176" x="-88" y="-88" transform="matrix(-.614 0 0 .614 1903.477 1167.333)" overflow="visible"/><use xlink:href="#d" width="176" height="176" x="-88" y="-88" transform="matrix(-.614 0 0 .614 1873.169 561.324)" overflow="visible"/><use xlink:href="#d" width="176" height="176" x="-88" y="-88" transform="matrix(-.614 0 0 .614 1661.685 262.839)" overflow="visible"/><use xlink:href="#d" width="176" height="176" x="-88" y="-88" transform="matrix(-.614 0 0 .614 1168.419 451.831)" overflow="visible"/><use xlink:href="#d" width="176" height="176" x="-88" y="-88" transform="matrix(-.614 0 0 .614 997.108 115.847)" overflow="visible"/><use xlink:href="#d" width="176" height="176" x="-88" y="-88" transform="matrix(-.614 0 0 .614 530.631 298.588)" overflow="visible"/><use xlink:href="#d" width="176" height="176" x="-88" y="-88" transform="matrix(-.614 0 0 .614 341.143 521.859)" overflow="visible"/><use xlink:href="#d" width="176" height="176" x="-88" y="-88" transform="matrix(-.614 0 0 .614 762.116 800.592)" overflow="visible"/><use xlink:href="#d" width="176" height="176" x="-88" y="-88" transform="matrix(-.614 0 0 .614 2426.169 382.324)" overflow="visible"/><use xlink:href="#d" width="176" height="176" x="-88" y="-88" transform="matrix(-.614 0 0 .614 2136.477 1315.324)" overflow="visible"/><use xlink:href="#e" width="176" height="176" x="-88" y="-88" transform="matrix(0 -.614 -.614 0 1537.919 1417.963)" overflow="visible"/><use xlink:href="#e" width="176" height="176" x="-88" y="-88" transform="matrix(0 -.614 -.614 0 2248.669 1058.963)" overflow="visible"/><use xlink:href="#e" width="176" height="176" x="-88" y="-88" transform="matrix(0 -.614 -.614 0 1306.707 180.346)" overflow="visible"/><use xlink:href="#e" width="176" height="176" x="-88" y="-88" transform="matrix(0 -.614 -.614 0 2064.669 295.983)" overflow="visible"/><use xlink:href="#e" width="176" height="176" x="-88" y="-88" transform="matrix(0 -.614 -.614 0 1370.204 588.324)" overflow="visible"/><use xlink:href="#e" width="176" height="176" x="-88" y="-88" transform="matrix(0 -.614 -.614 0 645.491 438.331)" overflow="visible"/><use xlink:href="#e" width="176" height="176" x="-88" y="-88" transform="matrix(0 -.614 -.614 0 178.024 85.846)" overflow="visible"/><use xlink:href="#e" width="176" height="176" x="-88" y="-88" transform="matrix(0 -.614 -.614 0 164.524 1174.824)" overflow="visible"/><use xlink:href="#e" width="176" height="176" x="-88" y="-88" transform="matrix(0 -.614 -.614 0 380.147 744.319)" overflow="visible"/><use xlink:href="#e" width="176" height="176" x="-88" y="-88" transform="matrix(0 -.614 -.614 0 982.647 942.342)" overflow="visible"/><use xlink:href="#e" width="176" height="176" x="-88" y="-88" transform="matrix(0 -.614 -.614 0 1545.954 977.338)" overflow="visible"/><use xlink:href="#e" width="176" height="176" x="-88" y="-88" transform="matrix(0 -.614 -.614 0 2232.169 1462.963)" overflow="visible"/><use xlink:href="#e" width="176" height="176" x="-88" y="-88" transform="matrix(0 -.614 -.614 0 772.919 1315.324)" overflow="visible"/><use xlink:href="#e" width="176" height="176" x="-88" y="-88" transform="matrix(0 -.614 -.614 0 656.919 1648.824)" overflow="visible"/><use xlink:href="#f" width="176.001" height="176" x="-88.001" y="-88" transform="matrix(-.614 0 0 .614 1784.475 998.975)" overflow="visible"/><use xlink:href="#f" width="176.001" height="176" x="-88.001" y="-88" transform="matrix(-.614 0 0 .614 1057.011 1301.824)" overflow="visible"/><use xlink:href="#f" width="176.001" height="176" x="-88.001" y="-88" transform="matrix(-.614 0 0 .614 932.011 1648.574)" overflow="visible"/><use xlink:href="#f" width="176.001" height="176" x="-88.001" y="-88" transform="matrix(-.614 0 0 .614 353.011 1567.324)" overflow="visible"/><use xlink:href="#f" width="176.001" height="176" x="-88.001" y="-88" transform="matrix(-.614 0 0 .614 401.011 1154.574)" overflow="visible"/><use xlink:href="#f" width="176.001" height="176" x="-88.001" y="-88" transform="matrix(-.614 0 0 .614 1167.397 915.342)" overflow="visible"/><use xlink:href="#f" width="176.001" height="176" x="-88.001" y="-88" transform="matrix(-.614 0 0 .614 1740.419 1391.955)" overflow="visible"/><use xlink:href="#f" width="176.001" height="176" x="-88.001" y="-88" transform="matrix(-.614 0 0 .614 2440.419 1433.324)" overflow="visible"/><use xlink:href="#f" width="176.001" height="176" x="-88.001" y="-88" transform="matrix(-.614 0 0 .614 2487.419 1043.324)" overflow="visible"/><use xlink:href="#f" width="176.001" height="176" x="-88.001" y="-88" transform="matrix(-.614 0 0 .614 2265.419 676.324)" overflow="visible"/><use xlink:href="#f" width="176.001" height="176" x="-88.001" y="-88" transform="matrix(-.614 0 0 .614 2306.419 279.324)" overflow="visible"/><use xlink:href="#f" width="176.001" height="176" x="-88.001" y="-88" transform="matrix(-.614 0 0 .614 1537.077 166.846)" overflow="visible"/><use xlink:href="#f" width="176.001" height="176" x="-88.001" y="-88" transform="matrix(-.614 0 0 .614 1559.576 564.574)" overflow="visible"/><use xlink:href="#f" width="176.001" height="176" x="-88.001" y="-88" transform="matrix(-.614 0 0 .614 832.112 414.582)" overflow="visible"/><use xlink:href="#f" width="176.001" height="176" x="-88.001" y="-88" transform="matrix(-.614 0 0 .614 217.148 397.831)" overflow="visible"/><use xlink:href="#f" width="176.001" height="176" x="-88.001" y="-88" transform="matrix(-.614 0 0 .614 176.024 799.31)" overflow="visible"/><use xlink:href="#c" width="176" height="176" x="-88" y="-88" transform="matrix(0 -.614 -.614 0 2418.484 160.486)" overflow="visible"/><use xlink:href="#b" width="176" height="176" x="-88" y="-88" transform="matrix(0 -.614 -.614 0 2185.919 194.574)" overflow="visible"/></g><g><radialGradient id="g" cx="1280" cy="882.5" r="1099.365" gradientTransform="matrix(0 -1 1.25 0 176.875 2162.5)" gradientUnits="userSpaceOnUse"><stop offset="0" stop-color="#fff" stop-opacity=".15"/><stop offset="1" stop-color="#fff" stop-opacity="0"/></radialGradient><path fill="url(#g)" d="M0 0h2560v1765H0z"/></g></svg>