<?xml version="1.0" standalone="no"?>
<!DOCTYPE svg PUBLIC "-//W3C//DTD SVG 1.1//EN" "http://www.w3.org/Graphics/SVG/1.1/DTD/svg11.dtd" >
<svg>
<metadata>
Created by FontForge 20120731 at Mon Sep 10 10:46:13 2018
 By www
2010 Critzla published by FSI FontShop International GmbH
</metadata>
<defs>
<font id="TradeMarkerWeb-LightW03-Rg" horiz-adv-x="1" >
  <font-face 
    font-family="TradeMarkerWeb-LightW03-Rg"
    font-weight="350"
    font-stretch="normal"
    units-per-em="1000"
    panose-1="2 11 5 4 2 1 1 2 1 2"
    ascent="800"
    descent="-200"
    x-height="470"
    cap-height="640"
    bbox="-586 -236 1101 890"
    underline-thickness="50"
    underline-position="-75"
    unicode-range="U+0020-FEFF"
  />
<missing-glyph horiz-adv-x="707" 
d="M40 640h627v-640h-627v640zM607 60v520h-507v-520h507z" />
    <glyph glyph-name="uniFB01" unicode="fi" horiz-adv-x="519" 
d="M372 536v104h102v-104h-102zM370 0v379h-230v-379h-106v514q0 27 6.5 50.5t22.5 40t41 26t63 9.5h154v-91h-142q-23 0 -31 -8.5t-8 -23.5v-47h336v-470h-106z" />
    <glyph glyph-name="uniFB02" unicode="fl" horiz-adv-x="522" 
d="M371 0v549h-192q-23 0 -31 -8.5t-8 -23.5v-47h170v-91h-170v-379h-106v514q0 27 6.5 50.5t22.5 40t41 26t63 9.5h310v-640h-106z" />
    <glyph glyph-name=".notdef" horiz-adv-x="707" 
d="M40 640h627v-640h-627v640zM607 60v520h-507v-520h507z" />
    <glyph glyph-name="glyph1" horiz-adv-x="0" 
 />
    <glyph glyph-name="glyph1" horiz-adv-x="0" 
 />
    <glyph glyph-name="glyph2" horiz-adv-x="450" 
 />
    <glyph glyph-name="space" unicode=" " horiz-adv-x="450" 
 />
    <glyph glyph-name="exclam" unicode="!" horiz-adv-x="186" 
d="M138 170h-90l-13 162v308h116v-308zM42 0v104h102v-104h-102z" />
    <glyph glyph-name="quotedbl" unicode="&#x22;" horiz-adv-x="341" 
d="M100 398h-49v242h103v-123zM257 398h-49v242h103v-123z" />
    <glyph glyph-name="numbersign" unicode="#" horiz-adv-x="755" 
d="M560 390l-22 -150h82v-84h-94l-22 -156h-93l22 156h-155l-22 -156h-93l22 156h-75v84h87l21 150h-83v84h94l24 167h94l-23 -167h153l24 167h94l-23 -167h73v-84h-85zM312 390l-22 -150h154l22 150h-154z" />
    <glyph glyph-name="dollar" unicode="$" horiz-adv-x="630" 
d="M622 186q0 -39 -14.5 -73t-40 -59.5t-59.5 -40.5t-73 -15h-65v-84h-106v84h-215v97h377q19 0 36 7.5t30 20t20.5 29t7.5 35.5t-7.5 35.5t-20 28.5t-29 19t-35.5 7h-233q-37 0 -70.5 12.5t-59 36t-40.5 57.5t-15 78q0 37 14 69.5t38 56.5t56.5 37.5t69.5 13.5h76v93h106
v-92h195v-94h-369q-35 0 -58 -25.5t-23 -60.5t23.5 -58.5t58.5 -23.5h232q39 0 74 -13t61.5 -38t42 -60t15.5 -80z" />
    <glyph glyph-name="percent" unicode="%" horiz-adv-x="962" 
d="M926 92q0 -51 -23 -71.5t-81 -20.5h-169q-58 0 -81 20.5t-23 71.5v152q0 51 23 71t81 20h169q58 0 81 -20t23 -71v-152zM396 0h-85l249 640h85zM413 396q0 -51 -23 -71t-81 -20h-169q-58 0 -81 20t-23 71v153q0 51 23 71t81 20h169q58 0 81 -20t23 -71v-153zM830 241
q0 11 -2.5 13t-7.5 2h-168q-5 0 -8 -2t-3 -13v-146q0 -10 3 -12.5t8 -2.5h168q5 0 7.5 2.5t2.5 12.5v146zM319 545q0 11 -2.5 13t-8.5 2h-168q-5 0 -7.5 -2t-2.5 -13v-146q0 -10 2.5 -12.5t7.5 -2.5h168q6 0 8.5 2.5t2.5 12.5v146z" />
    <glyph glyph-name="ampersand" unicode="&#x26;" horiz-adv-x="782" 
d="M758 0h-171q-26 0 -54 13t-46 45q-9 -11 -19 -21.5t-24.5 -18.5t-35.5 -13t-52 -5h-171q-43 0 -72 8.5t-47 26t-25.5 44t-7.5 62.5v92q0 73 27 109t88 36h62l-67 79q-13 16 -22 34t-9 43q0 59 36 82.5t98 23.5h253v-92h-226q-22 0 -29.5 -5.5t-7.5 -22.5q0 -14 8.5 -24.5
t20.5 -24.5l233 -263l91 95q8 9 11 22.5t3 52.5h106v-52q0 -25 -7.5 -43t-20.5 -32l-116 -119l13 -15q13 -14 26.5 -20t35.5 -6h118v-91zM285 290h-112q-12 0 -19 -4.5t-11 -11.5t-5 -15.5t-1 -15.5v-111q0 -23 8.5 -31.5t39.5 -8.5h177q12 0 21.5 4.5t16 11t12 13.5
t10.5 12z" />
    <glyph glyph-name="quotesingle" unicode="'" horiz-adv-x="213" 
d="M104 398h-49v242h103v-123z" />
    <glyph glyph-name="parenleft" unicode="(" horiz-adv-x="326" 
d="M263 -104q-94 0 -141.5 40.5t-47.5 129.5v404q0 89 47.5 129.5t141.5 40.5h33v-92h-66q-29 0 -39.5 -15t-10.5 -49v-432q0 -34 10.5 -49t39.5 -15h66v-92h-33z" />
    <glyph glyph-name="parenright" unicode=")" horiz-adv-x="326" 
d="M252 66q0 -89 -47.5 -129.5t-141.5 -40.5h-33v92h66q29 0 39.5 15t10.5 49v432q0 34 -10.5 49t-39.5 15h-66v92h33q94 0 141.5 -40.5t47.5 -129.5v-404z" />
    <glyph glyph-name="asterisk" unicode="*" horiz-adv-x="483" 
d="M368 617q-19 -11 -39 -14t-41 -5v-15q27 -6 42 -10.5t26.5 -9.5t24.5 -13.5t37 -23.5l-46 -75q-21 12 -35 21t-25 19t-20.5 23.5t-21.5 34.5l-12 -13q6 -19 11.5 -40t5.5 -42v-55h-83v51q0 26 5.5 44.5t16.5 41.5l-12 12q-15 -19 -27.5 -31.5t-25 -22.5t-27 -20
t-33.5 -23l-45 77q18 11 33.5 20t31 16t32.5 11.5t39 6.5v15q-24 6 -39.5 10t-29 9.5t-27.5 14t-35 22.5l45 73q19 -11 33 -19.5t25.5 -18.5t22 -23t22.5 -32l10 15q-5 18 -10.5 40.5t-5.5 43.5v46h84v-51q0 -20 -5.5 -40t-11.5 -39l10 -14q13 18 23.5 31t22.5 23t26.5 18.5
t34.5 19.5l44 -80z" />
    <glyph glyph-name="plus" unicode="+" horiz-adv-x="600" 
d="M338 302v-197h-76v197h-197v76h197v197h76v-197h197v-76h-197z" />
    <glyph glyph-name="comma" unicode="," horiz-adv-x="252" 
d="M111 -65h-36l34 65h-29v104h102v-99z" />
    <glyph glyph-name="hyphen" unicode="-" horiz-adv-x="426" 
d="M37 295v75h351v-75h-351z" />
    <glyph glyph-name="period" unicode="." horiz-adv-x="252" 
d="M75 0v104h102v-104h-102z" />
    <glyph glyph-name="slash" unicode="/" horiz-adv-x="316" 
d="M54 0h-94l303 640h93z" />
    <glyph glyph-name="zero" unicode="0" horiz-adv-x="746" 
d="M733 189q0 -50 -8 -86t-29 -59q-41 -44 -127 -44h-393q-85 0 -126 44q-20 22 -29 58t-9 87v261q0 50 8 87t29 60q20 22 52.5 32.5t74.5 10.5h393q41 0 72.5 -10t52.5 -33q20 -22 29.5 -59t9.5 -88v-261zM622 506q0 38 -45 38h-409q-45 0 -45 -38v-372q0 -38 45 -38h409
q45 0 45 38v372z" />
    <glyph glyph-name="one" unicode="1" horiz-adv-x="746" 
d="M215 0v91h129v419h-112v72l131 58h86v-549h124v-91h-358z" />
    <glyph glyph-name="two" unicode="2" horiz-adv-x="746" 
d="M680 470q0 -36 -12 -64.5t-32.5 -48.5t-47.5 -33.5t-58 -19.5l-287 -60q-31 -6 -51 -30t-20 -56v-60h498v-99h-605v159q0 37 11.5 68t32 54.5t48 39.5t59.5 22l294 60q40 8 54.5 26.5t14.5 43.5q0 29 -19.5 48t-47.5 19h-399v101h399q35 0 66 -12t53.5 -34.5t35.5 -54
t13 -69.5z" />
    <glyph glyph-name="three" unicode="3" horiz-adv-x="746" 
d="M674 143q0 -63 -32 -103t-105 -40h-465v96h440q52 0 52 47v97q0 39 -37 39h-373v106h373q11 0 18.5 4t11.5 10t5.5 12t1.5 10v77q0 20 -11.5 33t-29.5 13h-449v96h451q38 0 64 -11t42.5 -30t24 -45.5t7.5 -56.5v-58q0 -38 -11.5 -59t-19.5 -28q42 -32 42 -90v-119z" />
    <glyph glyph-name="four" unicode="4" horiz-adv-x="746" 
d="M639 124v-124h-107v124h-502v103l474 412h135v-420h77v-95h-77zM532 529l-370 -310h370v310z" />
    <glyph glyph-name="five" unicode="5" horiz-adv-x="746" 
d="M674 142q0 -66 -35 -104t-107 -38h-458v92h432q29 0 45.5 15t16.5 41v108q0 32 -20 44t-43 12h-433v328h558v-93h-450v-132h348q76 0 111 -40t35 -104v-129z" />
    <glyph glyph-name="six" unicode="6" horiz-adv-x="746" 
d="M700 154q0 -74 -34.5 -114t-114.5 -40h-356q-40 0 -68 14t-46 38t-26.5 56t-8.5 69v297q0 74 38.5 120t118.5 46h395v-92h-411q-17 0 -25.5 -12.5t-8.5 -25.5v-89h401q78 0 112 -40t34 -107v-120zM595 275q0 20 -10.5 32.5t-32.5 12.5h-399v-180q0 -26 12.5 -37t41.5 -11
h335q28 0 40.5 11t12.5 37v135z" />
    <glyph glyph-name="seven" unicode="7" horiz-adv-x="746" 
d="M665 547q0 -46 -24.5 -87t-59.5 -74q-58 -54 -106.5 -95t-89 -76.5t-75.5 -70.5t-66 -78q-5 -8 -14.5 -27.5t-17.5 -38.5h-125q8 26 19 54.5t20 42.5q21 31 50 65.5t72.5 75t102.5 89.5t140 109q28 21 45.5 49t17.5 62h-473v93h584v-93z" />
    <glyph glyph-name="eight" unicode="8" horiz-adv-x="746" 
d="M715 142q0 -37 -6.5 -63.5t-22 -44t-41.5 -26t-66 -8.5h-413q-40 0 -66 8.5t-41.5 26t-22 44t-6.5 63.5v117q0 24 6 40t14 26t17.5 15t15.5 8q-15 9 -24 35t-9 54v61q0 37 6.5 63.5t22 44t41.5 26t66 8.5h373q40 0 66 -8.5t41.5 -26t22 -44t6.5 -63.5v-61
q0 -14 -2.5 -28.5t-7 -27t-10.5 -21.5t-12 -12q6 -2 15 -7t17 -15t14 -26.5t6 -40.5v-117zM598 509q0 20 -7.5 29t-28.5 9h-378q-20 0 -27 -9t-7 -29v-90q0 -20 7 -29t27 -9h378q21 0 28.5 9t7.5 29v90zM611 240q0 20 -7.5 29t-28.5 9h-405q-20 0 -27 -9t-7 -29v-110
q0 -20 7 -29t27 -9h405q21 0 28.5 9t7.5 29v110z" />
    <glyph glyph-name="nine" unicode="9" horiz-adv-x="746" 
d="M46 486q0 74 34.5 114t114.5 40h356q40 0 68 -13.5t46 -37.5t26.5 -56t8.5 -69v-298q0 -74 -38.5 -120t-118.5 -46h-395v92h411q17 0 25.5 12.5t8.5 25.5v89h-401q-77 0 -111.5 40.5t-34.5 106.5v120zM151 365q0 -20 11 -32.5t32 -12.5h399v180q0 26 -12.5 37t-40.5 11
h-335q-29 0 -41.5 -11t-12.5 -37v-135z" />
    <glyph glyph-name="colon" unicode=":" horiz-adv-x="252" 
d="M75 350v104h102v-104h-102zM75 0v104h102v-104h-102z" />
    <glyph glyph-name="semicolon" unicode=";" horiz-adv-x="252" 
d="M111 -65h-36l34 65h-29v104h102v-99zM75 350v104h102v-104h-102z" />
    <glyph glyph-name="less" unicode="&#x3c;" horiz-adv-x="600" 
d="M74 290v72l472 205v-85l-358 -156l358 -155v-86z" />
    <glyph glyph-name="equal" unicode="=" horiz-adv-x="600" 
d="M65 393v76h470v-76h-470zM65 199v76h470v-76h-470z" />
    <glyph glyph-name="greater" unicode="&#x3e;" horiz-adv-x="600" 
d="M74 85v86l359 155l-359 156v85l472 -205v-72z" />
    <glyph glyph-name="question" unicode="?" horiz-adv-x="505" 
d="M489 493q0 -45 -24.5 -87.5t-88.5 -69.5l-73 -31q-30 -13 -48 -30.5t-28 -50.5l-6 -54h-92l-4 50q0 29 8 55.5t24 45.5q12 13 21.5 21.5t20 15t22.5 12.5t29 14l96 48q40 20 40 55q0 22 -14.5 38t-34.5 16h-291v99h306q30 0 55 -12t43.5 -32.5t28.5 -47t10 -55.5zM122 -1
v104h105v-104h-105z" />
    <glyph glyph-name="at" unicode="@" horiz-adv-x="1003" 
d="M963 271q0 -29 -0.5 -48t-2 -34.5t-5 -30t-9.5 -34.5q-12 -42 -29 -66.5t-38.5 -37t-49 -16t-61.5 -3.5h-77q-36 0 -72 -0.5t-74 -0.5h-79q-35 0 -71.5 9t-66.5 30t-49.5 54.5t-19.5 81.5q0 29 7 58q26 116 99 166t190 50h22q86 -2 123 -33t37 -80q0 -25 -7 -49l-51 -197
h110q23 0 39 16t24 43q6 21 9.5 50t3.5 49q0 75 -28 135.5t-76 102.5t-112 64.5t-136 22.5q-80 0 -148 -26t-117 -73t-76.5 -112t-27.5 -142q0 -85 29.5 -151.5t80.5 -112.5t119 -70t145 -24q71 0 125.5 19.5t101.5 56.5l58 -80q-23 -18 -51.5 -34.5t-64 -30t-79.5 -21.5
t-98 -8q-97 0 -182.5 33t-149.5 92.5t-101 143t-37 184.5q0 100 36.5 183.5t99.5 143.5t147.5 93t180.5 33q108 0 206.5 -39.5t173.5 -127.5q16 -20 30.5 -48t25.5 -59.5t17 -64t6 -60.5zM625 279q6 22 6 40q0 21 -12 32t-43 11h-36q-63 0 -110 -32t-64 -101
q-3 -11 -4 -21.5t-1 -19.5q0 -31 12.5 -50t31.5 -29.5t40 -14.5t38 -4h96z" />
    <glyph glyph-name="A" unicode="A" horiz-adv-x="715" 
d="M615 -1l-55 113h-404l-56 -113h-110l308 641h120l307 -641h-110zM357 531l-155 -325h311z" />
    <glyph glyph-name="B" unicode="B" horiz-adv-x="754" 
d="M719 142q0 -65 -31.5 -103.5t-104.5 -38.5h-554v640h538q78 0 110 -36t32 -107v-58q0 -28 -12.5 -54.5t-28.5 -34.5q19 -11 35 -32t16 -61v-115zM602 510q0 38 -38 38h-428v-165h427q18 0 28.5 10t10.5 30v87zM612 231q0 23 -11.5 36.5t-40.5 13.5h-424v-189h422
q29 0 41.5 11t12.5 37v91z" />
    <glyph glyph-name="C" unicode="C" horiz-adv-x="660" 
d="M219 0q-94 0 -141.5 40.5t-47.5 129.5v300q0 89 47.5 129.5t141.5 40.5h405v-95h-436q-29 0 -39.5 -15t-10.5 -49v-323q0 -34 10.5 -49t39.5 -15h436v-94h-405z" />
    <glyph glyph-name="D" unicode="D" horiz-adv-x="777" 
d="M744 142q0 -66 -32.5 -104t-103.5 -38h-577v640h577q70 0 103 -39.5t33 -102.5v-356zM638 500q0 20 -12 34t-32 14h-459v-456h449q29 0 41.5 11t12.5 37v360z" />
    <glyph glyph-name="E" unicode="E" horiz-adv-x="655" 
d="M166 0q-36 0 -62 10.5t-42.5 29.5t-24 45t-7.5 57v356q0 30 7.5 56t24 45t42.5 30t62 11h459v-92h-444q-23 0 -33 -14t-10 -37v-116h450v-103h-450v-138q0 -26 12.5 -37t41.5 -11h433v-92h-459z" />
    <glyph glyph-name="F" unicode="F" horiz-adv-x="633" 
d="M178 548q-20 0 -31.5 -13.5t-11.5 -33.5v-127h453v-104h-453v-270h-105v498q0 29 7 54.5t23.5 45t42 31t63.5 11.5h459v-92h-447z" />
    <glyph glyph-name="G" unicode="G" horiz-adv-x="762" 
d="M166 0q-69 0 -102.5 38t-33.5 104v356q0 30 7 55.5t23.5 45t42 30.5t63.5 11h465v-92h-451q-20 0 -32.5 -14t-12.5 -34v-360q0 -26 12.5 -37t41.5 -11h440v189h-255v102h355v-383h-563z" />
    <glyph glyph-name="H" unicode="H" horiz-adv-x="790" 
d="M638 0v281h-487v-281h-106v640h106v-257h487v257h107v-640h-107z" />
    <glyph glyph-name="I" unicode="I" horiz-adv-x="183" 
d="M38 0v640h107v-640h-107z" />
    <glyph glyph-name="J" unicode="J" horiz-adv-x="595" 
d="M557 186q0 -66 -15.5 -103.5t-43 -55.5t-65.5 -22.5t-82 -4.5h-325v92h353q19 0 32.5 3t21.5 11.5t12 24t4 41.5v468h108v-454z" />
    <glyph glyph-name="K" unicode="K" horiz-adv-x="691" 
d="M551 0l-304 282l-111 -92v-190h-103v640h103v-320l382 320h158l-346 -289l381 -351h-160z" />
    <glyph glyph-name="L" unicode="L" horiz-adv-x="592" 
d="M38 0v640h107v-548h447v-92h-554z" />
    <glyph glyph-name="M" unicode="M" horiz-adv-x="1078" 
d="M939 0v487q0 32 -12.5 44.5t-44.5 12.5h-295v-544h-106v500q0 24 -10.5 34t-36.5 10h-292v-544h-106v640h853q48 0 79 -11.5t48 -33t23.5 -53.5t6.5 -73v-469h-107z" />
    <glyph glyph-name="N" unicode="N" horiz-adv-x="754" 
d="M613 0v481q0 36 -14 50.5t-51 14.5h-405v-546h-106v640h527q46 0 76.5 -11t48.5 -32.5t25 -53.5t7 -74v-469h-108z" />
    <glyph glyph-name="O" unicode="O" horiz-adv-x="784" 
d="M754 188q0 -50 -8 -85.5t-28 -58.5q-41 -44 -126 -44h-397q-41 0 -72.5 10.5t-51.5 33.5q-20 21 -29 57t-9 87v263q0 50 8 86.5t28 59.5q20 22 52 32.5t74 10.5h397q41 0 72 -10t51 -33q20 -21 29.5 -58t9.5 -88v-263zM648 507q0 41 -49 41h-412q-48 0 -48 -41v-374
q0 -41 48 -41h412q49 0 49 41v374z" />
    <glyph glyph-name="P" unicode="P" horiz-adv-x="746" 
d="M711 358q0 -51 -15.5 -83t-40.5 -50t-57 -24.5t-65 -6.5h-396v-194h-106v640h518q27 0 55.5 -5.5t52.5 -22t39 -47t15 -81.5v-126zM598 493q0 34 -9 44.5t-35 10.5h-417v-263h410q26 0 38.5 10.5t12.5 44.5v153z" />
    <glyph glyph-name="Q" unicode="Q" horiz-adv-x="837" 
d="M192 0q-41 0 -72.5 9.5t-51.5 31.5t-29 59t-9 88v263q0 50 8.5 86.5t29.5 59.5q39 43 124 43h395q41 0 71.5 -9.5t51.5 -32.5q20 -21 29.5 -58.5t9.5 -88.5v-277q0 -23 -5 -45.5t-14 -36.5l74 1v-93h-612zM643 507q0 41 -49 41h-411q-48 0 -48 -41v-374q0 -41 48 -41h411
q49 0 49 41v374z" />
    <glyph glyph-name="R" unicode="R" horiz-adv-x="744" 
d="M611 0l-106 209h-366v-209h-106v640h514q27 0 56.5 -6t54 -22.5t40 -47.5t15.5 -80v-113q0 -21 -5 -43.5t-17 -42.5t-31 -36t-46 -26l118 -223h-121zM595 493q0 34 -13.5 45t-39.5 11h-403v-238h404q52 0 52 57v125z" />
    <glyph glyph-name="S" unicode="S" horiz-adv-x="680" 
d="M670 187q0 -39 -14.5 -73t-40 -59.5t-59.5 -40.5t-73 -15h-434v97h425q19 0 36 7.5t30 20t20.5 29t7.5 35.5q0 38 -27 63.5t-65 25.5h-281q-37 0 -70.5 12.5t-59 36.5t-40.5 58t-15 78q0 37 14 69.5t38 56.5t56.5 38t69.5 14h428v-94h-420q-35 0 -58 -25.5t-23 -60.5
t23.5 -58t58.5 -23h280q39 0 74 -13.5t61.5 -38t42 -60t15.5 -80.5z" />
    <glyph glyph-name="T" unicode="T" horiz-adv-x="624" 
d="M368 543v-543h-113v543h-254v97h623v-97h-256z" />
    <glyph glyph-name="U" unicode="U" horiz-adv-x="764" 
d="M192 0q-83 0 -120 46t-37 125v469h107v-506q0 -22 8.5 -30.5t30.5 -8.5h432v545h106v-640h-527z" />
    <glyph glyph-name="V" unicode="V" horiz-adv-x="718" 
d="M420 -1q-28 0 -40 0.5t-21 0.5t-21.5 -0.5t-39.5 -0.5l-308 641h114l255 -519l255 519h114z" />
    <glyph glyph-name="W" unicode="W" horiz-adv-x="1018" 
d="M760 -1q-15 0 -30.5 0.5t-30.5 0.5t-30.5 -0.5t-30.5 -0.5l-129 309l-129 -309q-15 0 -30.5 0.5t-30.5 0.5t-30.5 -0.5t-30.5 -0.5l-268 641h114l215 -501l132 308l-81 193h114l215 -501l215 501h114z" />
    <glyph glyph-name="X" unicode="X" horiz-adv-x="681" 
d="M525 0l-190 244l-191 -244h-138l260 328l-246 312h137l178 -228l188 228h137l-256 -312l259 -328h-138z" />
    <glyph glyph-name="Y" unicode="Y" horiz-adv-x="678" 
d="M397 168v-168h-114v170l-293 470h125l229 -367l219 367h125z" />
    <glyph glyph-name="Z" unicode="Z" horiz-adv-x="631" 
d="M23 0v92l448 456h-440v92h576v-96l-441 -452h443v-92h-586z" />
    <glyph glyph-name="bracketleft" unicode="[" horiz-adv-x="326" 
d="M80 -104v744h216v-92h-109v-560h111v-92h-218z" />
    <glyph glyph-name="backslash" unicode="\" horiz-adv-x="316" 
d="M264 0l-303 640h94l302 -640h-93z" />
    <glyph glyph-name="bracketright" unicode="]" horiz-adv-x="326" 
d="M29 -104v92h111v560h-109v92h216v-744h-218z" />
    <glyph glyph-name="asciicircum" unicode="^" horiz-adv-x="600" 
d="M437 287l-138 279l-137 -279h-72l176 353h66l178 -353h-73z" />
    <glyph glyph-name="underscore" unicode="_" horiz-adv-x="500" 
d="M0 -125v60h500v-60h-500z" />
    <glyph glyph-name="grave" unicode="`" horiz-adv-x="333" 
d="M118 538l-136 140h124l112 -140h-100z" />
    <glyph glyph-name="a" unicode="a" horiz-adv-x="700" 
d="M168 0q-40 0 -66 8.5t-41.5 26t-22 44t-6.5 63.5v27q0 29 6.5 54.5t22 45t41.5 31t66 11.5h395v37q0 16 -7.5 23t-32.5 7h-388v92h376q45 0 75 -10t48.5 -31t26.5 -54.5t8 -81.5v-293h-501zM563 220h-375q-27 0 -38.5 -7t-11.5 -33v-48q0 -26 11.5 -33t38.5 -7h335
q12 0 20 1t12.5 5.5t6 14t1.5 25.5v82z" />
    <glyph glyph-name="b" unicode="b" horiz-adv-x="704" 
d="M672 146q0 -35 -7 -62t-24.5 -46t-46 -28.5t-70.5 -9.5h-484v640h106v-170h378q44 0 72.5 -9t45.5 -27t23.5 -45.5t6.5 -64.5v-178zM566 342q0 20 -8 28t-25 8h-354q-17 0 -25 -8t-8 -28v-214q0 -20 8 -28t25 -8h354q17 0 25 8t8 28v214z" />
    <glyph glyph-name="c" unicode="c" horiz-adv-x="581" 
d="M180 0q-81 0 -114.5 37t-33.5 109v178q0 34 7 61t24 46t45.5 29t71.5 10h374v-92h-355q-29 0 -41.5 -11t-12.5 -37v-190q0 -26 12.5 -37t41.5 -11h359v-92h-378z" />
    <glyph glyph-name="d" unicode="d" horiz-adv-x="698" 
d="M180 0q-42 0 -70.5 10t-45.5 29t-24.5 46t-7.5 61v178q0 70 32.5 108t115.5 38h378v170h106v-640h-484zM558 342q0 20 -8 28t-25 8h-354q-17 0 -25 -8t-8 -28v-214q0 -20 8 -28t25 -8h354q17 0 25 8t8 28v214z" />
    <glyph glyph-name="e" unicode="e" horiz-adv-x="684" 
d="M138 184v-44q0 -26 12.5 -37t41.5 -11h380v-92h-404q-40 0 -66 8.5t-41.5 25.5t-22 44t-6.5 64v186q0 37 5.5 63.5t20.5 44t41.5 26t68.5 8.5h359q42 0 68.5 -7.5t41.5 -24.5t20.5 -44t5.5 -66v-144h-525zM563 340q0 20 -7 29t-27 9h-357q-20 0 -27 -9t-7 -29v-64h425v64
z" />
    <glyph glyph-name="f" unicode="f" horiz-adv-x="328" 
d="M179 549q-23 0 -31 -8.5t-8 -23.5v-47h170v-91h-170v-379h-106v514q0 27 6.5 50.5t22.5 40t41 26t63 9.5h156v-91h-144z" />
    <glyph glyph-name="g" unicode="g" horiz-adv-x="704" 
d="M664 0q0 -50 -9 -84t-28 -55t-49 -30t-72 -9h-111v92h107q19 0 31 3t18.5 10.5t8.5 21.5t2 35v16h-382q-72 0 -110 34.5t-38 111.5v178q0 43 9 71.5t27 45t46 23t66 6.5h484v-470zM562 340q0 20 -7 29t-27 9h-356q-20 0 -27 -9t-7 -29v-210q0 -20 7 -29t27 -9h356
q20 0 27 9t7 29v210z" />
    <glyph glyph-name="h" unicode="h" horiz-adv-x="704" 
d="M572 0v344q0 18 -5 26t-24 8h-355q-22 0 -30.5 -8.5t-8.5 -30.5v-339h-106v640h106v-170h410q60 0 89.5 -28.5t29.5 -97.5v-344h-106z" />
    <glyph glyph-name="i" unicode="i" horiz-adv-x="192" 
d="M45 536v104h102v-104h-102zM43 0v470h106v-470h-106z" />
    <glyph glyph-name="j" unicode="j" horiz-adv-x="195" 
d="M46 536v104h102v-104h-102zM150 -21q0 -47 -7 -77t-23.5 -48t-43.5 -25t-66 -7h-129v92h116q29 0 38 13t9 42v501h106v-491z" />
    <glyph glyph-name="k" unicode="k" horiz-adv-x="668" 
d="M551 0l-218 239l-187 -138v-101h-106v640h106v-420l352 250h148l-234 -173l272 -297h-133z" />
    <glyph glyph-name="l" unicode="l" horiz-adv-x="196" 
d="M45 0v640h106v-640h-106z" />
    <glyph glyph-name="m" unicode="m" horiz-adv-x="973" 
d="M834 0v344q0 21 -7 27.5t-22 6.5h-227q-29 0 -29 -34v-344h-106v344q0 34 -29 34h-239q-29 0 -29 -34v-344h-106v470h785q56 0 86 -29t30 -95v-346h-107z" />
    <glyph glyph-name="n" unicode="n" horiz-adv-x="707" 
d="M569 0v344q0 18 -5 26t-24 8h-355q-22 0 -30.5 -8.5t-8.5 -30.5v-339h-106v470h516q60 0 89.5 -28.5t29.5 -97.5v-344h-106z" />
    <glyph glyph-name="o" unicode="o" horiz-adv-x="704" 
d="M672 142q0 -37 -6.5 -63.5t-22 -44t-41.5 -26t-66 -8.5h-368q-40 0 -66 8.5t-41.5 26t-22 44t-6.5 63.5v186q0 37 6.5 63.5t22 44t41.5 26t66 8.5h368q40 0 66 -8.5t41.5 -26t22 -44t6.5 -63.5v-186zM566 340q0 20 -7.5 29t-28.5 9h-358q-20 0 -27 -9t-7 -29v-210
q0 -20 7 -29t27 -9h358q21 0 28.5 9t7.5 29v210z" />
    <glyph glyph-name="p" unicode="p" horiz-adv-x="704" 
d="M672 146q0 -32 -8 -59t-25.5 -46.5t-46 -30t-68.5 -10.5h-378v-178h-106v648h484q40 0 68.5 -10.5t46 -30t25.5 -46.5t8 -59v-178zM566 342q0 20 -8 28t-25 8h-354q-17 0 -25 -8t-8 -28v-214q0 -20 8 -28t25 -8h354q17 0 25 8t8 28v214z" />
    <glyph glyph-name="q" unicode="q" horiz-adv-x="698" 
d="M558 -178v178h-378q-41 0 -69 10.5t-45.5 30t-25.5 46.5t-8 59v178q0 32 8 59t25.5 46.5t45.5 30t69 10.5h484v-648h-106zM558 342q0 20 -8 28t-25 8h-354q-17 0 -25 -8t-8 -28v-214q0 -20 8 -28t25 -8h354q17 0 25 8t8 28v214z" />
    <glyph glyph-name="r" unicode="r" horiz-adv-x="378" 
d="M207 378q-20 0 -37 -14t-17 -28v-336h-112v299q0 79 37 125t120 46h159v-92h-150z" />
    <glyph glyph-name="s" unicode="s" horiz-adv-x="635" 
d="M613 143q0 -30 -11 -56t-30 -45.5t-45 -30.5t-55 -11h-416v93h413q20 0 34.5 14.5t14.5 35.5q0 20 -14.5 33.5t-34.5 13.5h-304q-29 0 -54 11t-44 30t-30 44t-11 54t10.5 54.5t28.5 44.5t42.5 30t53.5 11h411v-92h-406q-18 0 -31 -14.5t-13 -33.5q0 -18 13 -31t31 -13
h308q30 0 55 -10.5t44 -29.5t29.5 -45t10.5 -57z" />
    <glyph glyph-name="t" unicode="t" horiz-adv-x="362" 
d="M179 0q-28 0 -53.5 6.5t-44.5 23t-30.5 45t-11.5 72.5v425h106v-102h178v-92h-178v-248q0 -23 7.5 -30.5t39.5 -7.5h144v-92h-157z" />
    <glyph glyph-name="u" unicode="u" horiz-adv-x="708" 
d="M189 0q-83 0 -120 46t-37 125v299h106v-339q0 -22 8.5 -30.5t30.5 -8.5h346q22 0 30.5 8.5t8.5 30.5v339h106v-470h-479z" />
    <glyph glyph-name="v" unicode="v" horiz-adv-x="680" 
d="M402 0h-124l-288 470h121l229 -374l229 374h121z" />
    <glyph glyph-name="w" unicode="w" horiz-adv-x="995" 
d="M738 0h-121l-119 210l-120 -210h-121l-267 470h116l212 -372l122 214l-90 158h116l212 -372l211 372h116z" />
    <glyph glyph-name="x" unicode="x" horiz-adv-x="609" 
d="M468 0l-164 166l-165 -166h-138l234 236l-233 234h139l163 -164l162 164h139l-232 -234l234 -236h-139z" />
    <glyph glyph-name="y" unicode="y" horiz-adv-x="690" 
d="M658 -40q0 -67 -34.5 -102.5t-99.5 -35.5h-136v92h116q30 0 39 8.5t9 25.5v52h-363q-83 0 -120 46t-37 125v299h106v-339q0 -22 8.5 -30.5t30.5 -8.5h347q17 0 22.5 6t5.5 34v338h106v-510z" />
    <glyph glyph-name="z" unicode="z" horiz-adv-x="617" 
d="M41 0v90l376 288h-371v92h530v-90l-379 -288h380v-92h-536z" />
    <glyph glyph-name="braceleft" unicode="{" horiz-adv-x="310" 
d="M227 -104q-26 0 -48.5 9.5t-39.5 25t-27 34.5t-10 38v159q0 19 -10.5 31.5t-25 19.5t-30.5 9.5t-26 2.5v92q10 0 26 2.5t30.5 9t25 17.5t10.5 29v158q0 19 10 38t27 34.5t39.5 25t48.5 9.5h85v-89h-57q-28 0 -42.5 -13t-14.5 -45v-138q0 -23 -11.5 -38.5t-27.5 -24.5
t-33.5 -13.5t-29.5 -5.5v-4q12 -1 29.5 -4.5t33.5 -12.5t27.5 -25.5t11.5 -44.5v-139q0 -32 14.5 -45t42.5 -13h57v-89h-85z" />
    <glyph glyph-name="bar" unicode="|" horiz-adv-x="202" 
d="M58 0v640h86v-640h-86z" />
    <glyph glyph-name="braceright" unicode="}" horiz-adv-x="310" 
d="M314 225q-11 0 -26.5 -2.5t-30 -9.5t-25 -19.5t-10.5 -31.5v-159q0 -19 -10 -38t-27 -34.5t-40 -25t-48 -9.5h-85v89h57q28 0 42.5 13t14.5 45v139q0 28 11.5 44.5t27.5 25.5t33.5 12.5t29.5 4.5v4q-12 1 -29.5 5.5t-33.5 13.5t-27.5 24.5t-11.5 38.5v138q0 32 -14.5 45
t-42.5 13h-57v89h85q25 0 48 -9.5t40 -25t27 -34.5t10 -38v-158q0 -18 10.5 -29t25 -17.5t30 -9t26.5 -2.5v-92z" />
    <glyph glyph-name="asciitilde" unicode="~" horiz-adv-x="560" 
d="M500 321q-38 -55 -113 -55q-26 0 -52 10t-49 23q-21 12 -44.5 22.5t-55.5 10.5q-31 0 -66 -11.5t-56 -28.5v66q21 25 52.5 45t73.5 20q31 0 52 -8t48 -22q26 -13 55.5 -24.5t48.5 -11.5q28 0 54.5 7t51.5 30v-73z" />
    <glyph glyph-name="uni00A0" unicode="&#xa0;" horiz-adv-x="450" 
 />
    <glyph glyph-name="exclamdown" unicode="&#xa1;" horiz-adv-x="186" 
d="M48 301h90l13 -162v-309h-116v309zM144 470v-104h-102v104h102z" />
    <glyph glyph-name="cent" unicode="&#xa2;" horiz-adv-x="581" 
d="M392 0v-86h-107v86h-105q-41 0 -69 10.5t-45.5 30t-25.5 46.5t-8 59v178q0 32 8 59t25.5 46.5t45.5 30t69 10.5h105v77h107v-77h162v-92h-353q-29 0 -41.5 -11t-12.5 -37v-190q0 -26 12.5 -37t41.5 -11h357v-92h-166z" />
    <glyph glyph-name="sterling" unicode="&#xa3;" horiz-adv-x="710" 
d="M691 130q0 -65 -40.5 -97.5t-118.5 -32.5h-507v97q36 12 58 29.5t33.5 41.5t15.5 53t4 64h-113v93h101l-12 120q-1 5 -1 10v10q0 25 7.5 47.5t23.5 39t40.5 26t58.5 9.5h325v-92h-309q-17 0 -27.5 -10.5t-10.5 -27.5v-4l12 -128h272v-93h-260q0 -24 -1.5 -50t-8.5 -50.5
t-21 -47t-39 -38.5v-7h364q25 0 37 8.5t12 30.5v52h105v-53z" />
    <glyph glyph-name="currency" unicode="&#xa4;" horiz-adv-x="743" 
d="M248 101q-52 0 -85 18l-85 -59l-56 81l83 57q-3 11 -4 23t-1 26v148q0 24 5 49l-83 57l55 81l86 -59q17 8 38 13t47 5h247q26 0 46.5 -5t36.5 -13l86 59l55 -81l-82 -56q6 -23 6 -50v-148q0 -27 -6 -51l81 -55l-56 -81l-85 58q-32 -17 -82 -17h-247zM211 241
q0 -29 13 -40.5t45 -11.5h205q32 0 45 11.5t13 40.5v160q0 29 -13 40.5t-45 11.5h-205q-32 0 -45 -11.5t-13 -40.5v-160z" />
    <glyph glyph-name="yen" unicode="&#xa5;" horiz-adv-x="678" 
d="M535 392h112v-91h-168l-34 -55h202v-87h-250v-159h-114v159h-251v87h204l-35 55h-169v91h113l-155 248h125l229 -367l219 367h125z" />
    <glyph glyph-name="brokenbar" unicode="&#xa6;" horiz-adv-x="222" 
d="M73 400v240h76v-240h-76zM73 0v240h76v-240h-76z" />
    <glyph glyph-name="section" unicode="&#xa7;" horiz-adv-x="707" 
d="M672 315q0 -59 -10.5 -86.5t-40.5 -44.5q-17 -9 -56 -9q25 -8 36 -23.5t11 -54.5v-78q0 -35 -8.5 -56.5t-25 -33.5t-40 -16t-54.5 -4h-288v92h284q20 0 28.5 5.5t8.5 19.5v79q0 14 -8.5 19.5t-28.5 5.5h-313q-69 0 -101.5 31.5t-32.5 100.5v81q0 48 16.5 75.5t49.5 37.5
q8 2 20 4.5t23 4.5q-11 3 -19.5 8t-15.5 14.5t-10.5 25t-3.5 40.5v67q0 110 130 110h259v-92h-250q-26 0 -34 -7t-8 -25v-69q0 -18 8 -25t34 -7h301q75 0 107 -29t32 -89v-72zM567 373q0 20 -6.5 29.5t-23.5 9.5h-369q-17 0 -23.5 -9.5t-6.5 -29.5v-110q0 -20 6.5 -29.5
t23.5 -9.5h369q17 0 23.5 9.5t6.5 29.5v110z" />
    <glyph glyph-name="dieresis" unicode="&#xa8;" horiz-adv-x="344" 
d="M223 536v104h102v-104h-102zM19 536v104h102v-104h-102z" />
    <glyph glyph-name="copyright" unicode="&#xa9;" horiz-adv-x="834" 
d="M794 322q0 -86 -31.5 -153t-84 -114t-120.5 -71.5t-141 -24.5q-74 0 -142 24.5t-120 71.5t-83.5 114t-31.5 153q0 85 31.5 152.5t83.5 114.5t120 71.5t142 24.5q73 0 141 -24.5t120.5 -71.5t84 -114.5t31.5 -152.5zM702 322q0 65 -23.5 116t-63.5 86.5t-91.5 54
t-106.5 18.5q-56 0 -107.5 -18.5t-91 -54t-63.5 -86.5t-24 -116t24 -116t63.5 -86.5t91 -54t107.5 -18.5q55 0 106.5 18.5t91.5 54t63.5 86.5t23.5 116zM337 137q-62 0 -84 26.5t-22 83.5v145q0 58 22 84.5t84 26.5h234l-18 -85h-200q-16 0 -21.5 -6.5t-5.5 -22.5v-138
q0 -16 5.5 -23t21.5 -7h200l18 -84h-234z" />
    <glyph glyph-name="ordfeminine" unicode="&#xaa;" horiz-adv-x="400" 
d="M94 358q-48 0 -65 20.5t-17 64.5v16q0 17 4 32.5t13 27t25 18.5t40 7h221v13q0 10 -5 14t-19 4h-217v65h219q54 0 74.5 -24.5t20.5 -81.5v-176h-294zM315 479h-199q-17 0 -23.5 -4t-6.5 -20v-8q0 -15 6.5 -19.5t23.5 -4.5h169q20 0 25 7t5 34v15z" />
    <glyph glyph-name="guillemotleft" unicode="&#xab;" horiz-adv-x="445" 
d="M302 54l-97 176l97 186h98l-97 -186l97 -176h-98zM142 54l-97 176l97 186h98l-97 -186l97 -176h-98z" />
    <glyph glyph-name="logicalnot" unicode="&#xac;" horiz-adv-x="600" 
d="M459 108v194h-394v76h470v-270h-76z" />
    <glyph glyph-name="uni00AD" unicode="&#xad;" horiz-adv-x="426" 
d="M37 295v75h351v-75h-351z" />
    <glyph glyph-name="registered" unicode="&#xae;" horiz-adv-x="451" 
d="M431 532q0 -47 -17.5 -83.5t-46 -62t-65.5 -39t-77 -13.5t-77 13.5t-65.5 39t-45.5 62t-17 83.5q0 46 17 83t45.5 62.5t65.5 39t77 13.5t77 -13.5t65.5 -39t46 -62.5t17.5 -83zM375 532q0 34 -12.5 60.5t-33.5 45t-48 28.5t-56 10t-56 -10t-47.5 -28.5t-33 -45
t-12.5 -60.5t12.5 -61t33 -45.5t47.5 -28t56 -9.5t56 9.5t48 28t33.5 45.5t12.5 61zM322 550q0 -18 -10.5 -32t-26.5 -19l29 -69h-52l-28 66h-35v-66h-51v207h93q44 0 62.5 -15t18.5 -53v-19zM269 571q0 13 -9 15.5t-25 2.5h-36v-47h38q16 0 24 3t8 14v12z" />
    <glyph glyph-name="macron" unicode="&#xaf;" horiz-adv-x="333" 
d="M-21 549v60h376v-60h-376z" />
    <glyph glyph-name="degree" unicode="&#xb0;" horiz-adv-x="312" 
d="M285 609q0 -27 -10 -50t-27.5 -40.5t-41 -27t-50.5 -9.5t-50.5 9.5t-40.5 27t-27 40.5t-10 50t10 50.5t27 41t40.5 27.5t50.5 10t50.5 -10t41 -27.5t27.5 -41t10 -50.5zM226 609q0 30 -20 51.5t-50 21.5t-50 -21.5t-20 -51.5t20 -50.5t50 -20.5t50 20.5t20 50.5z" />
    <glyph glyph-name="plusminus" unicode="&#xb1;" horiz-adv-x="600" 
d="M338 304v-143h-76v143h-197v76h197v142h76v-142h197v-76h-197zM65 0v76h470v-76h-470z" />
    <glyph glyph-name="uni00B2" unicode="&#xb2;" horiz-adv-x="384" 
d="M357 255h-322v93q0 38 19 60q14 17 27.5 24.5t33.5 15.5l162 68q23 10 23 30q0 12 -8 22t-25 10h-204v62h208q44 0 68 -26.5t24 -64.5q0 -29 -16.5 -55.5t-51.5 -40.5l-140 -57q-11 -5 -22.5 -11t-16.5 -11q-10 -10 -10 -26v-31h252z" />
    <glyph glyph-name="uni00B3" unicode="&#xb3;" horiz-adv-x="407" 
d="M370 342q0 -38 -19 -62t-63 -24h-249v58h234q31 0 31 28v58q0 23 -22 23h-194v64h194q22 0 22 22v46q0 12 -7 19.5t-18 7.5h-239v58h241q45 0 63.5 -24.5t18.5 -61.5v-34q0 -23 -6.5 -35.5t-11.5 -17.5q25 -19 25 -54v-71z" />
    <glyph glyph-name="acute" unicode="&#xb4;" horiz-adv-x="333" 
d="M215 538h-100l112 140h124z" />
    <glyph glyph-name="uni00B5" unicode="&#xb5;" horiz-adv-x="704" 
d="M148 0v-178h-107v648h106v-339q0 -22 8.5 -30.5t30.5 -8.5h384v378h106v-470h-528z" />
    <glyph glyph-name="paragraph" unicode="&#xb6;" horiz-adv-x="583" 
d="M499 547v-547h-97v547h-66v-547h-99v287q-107 0 -164.5 46t-57.5 127q0 53 18.5 88t51.5 55.5t77.5 28.5t96.5 8h305v-93h-65z" />
    <glyph glyph-name="periodcentered" unicode="&#xb7;" horiz-adv-x="333" 
d="M233 236q0 -28 -19.5 -47.5t-47.5 -19.5t-47.5 19.5t-19.5 47.5t19.5 47.5t47.5 19.5t47.5 -19.5t19.5 -47.5z" />
    <glyph glyph-name="cedilla" unicode="&#xb8;" horiz-adv-x="333" 
d="M269 -159q0 -26 -14 -43t-46 -17h-111v62h81q21 0 21 19v12q0 19 -21 19h-82v57l30 50h81l-30 -50h33q32 0 45 -15.5t13 -41.5v-52z" />
    <glyph glyph-name="uni00B9" unicode="&#xb9;" horiz-adv-x="254" 
d="M37 256v57h70v226h-76v48q32 3 48 10.5t25 16.5q5 5 7.5 10.5t4.5 11.5q2 4 4 4h52v-327h65v-57h-200z" />
    <glyph glyph-name="ordmasculine" unicode="&#xba;" horiz-adv-x="400" 
d="M392 443q0 -45 -17 -65t-65 -20h-220q-48 0 -65 20t-17 65v111q0 45 17 65.5t65 20.5h220q48 0 65 -20.5t17 -65.5v-111zM318 552q0 12 -4 17t-17 5h-195q-12 0 -16 -5t-4 -17v-106q0 -13 4 -18t16 -5h195q13 0 17 5t4 18v106z" />
    <glyph glyph-name="guillemotright" unicode="&#xbb;" horiz-adv-x="445" 
d="M303 54h-98l97 176l-97 186h98l97 -186zM143 54h-98l97 176l-97 186h98l97 -186z" />
    <glyph glyph-name="onequarter" unicode="&#xbc;" horiz-adv-x="753" 
d="M680 75v-75h-65v75h-271v61l254 247h82v-252h45v-56h-45zM216 0h-79l362 640h80zM615 318l-196 -187h196v187zM37 256v57h70v226h-76v48q32 3 48 10.5t25 16.5q5 5 7.5 10.5t4.5 11.5q2 4 4 4h52v-327h65v-57h-200z" />
    <glyph glyph-name="onehalf" unicode="&#xbd;" horiz-adv-x="838" 
d="M450 0v91q0 17 5 33.5t15 27.5q14 17 27.5 24.5t33.5 15.5l162 68q22 9 22 31q0 10 -6.5 20.5t-20.5 10.5h-209v62h217q18 0 33 -7.5t26 -20.5t17 -29t6 -34q0 -29 -13.5 -54t-53.5 -42l-140 -58q-8 -3 -16.5 -7t-16.5 -9.5t-13 -13t-5 -17.5v-32h253v-60h-323zM216 0
h-79l362 640h80zM37 256v57h70v226h-76v48q32 3 48.5 11t24.5 16q5 5 7.5 10.5t4.5 11.5q2 4 4 4h52v-327h65v-57h-200z" />
    <glyph glyph-name="threequarters" unicode="&#xbe;" horiz-adv-x="874" 
d="M797 75v-75h-65v75h-271v61l254 247h82v-252h45v-56h-45zM326 0h-79l362 640h80zM370 342q0 -38 -19 -62t-63 -24h-249v58h234q31 0 31 28v58q0 23 -22 23h-194v64h194q14 0 18 9t4 13v46q0 12 -7 19.5t-18 7.5h-239v58h241q45 0 63.5 -24.5t18.5 -61.5v-34
q0 -23 -6.5 -35.5t-11.5 -17.5q25 -19 25 -54v-71zM732 318l-196 -187h196v187z" />
    <glyph glyph-name="questiondown" unicode="&#xbf;" horiz-adv-x="505" 
d="M29 -23q0 45 24.5 87.5t88.5 69.5l73 31q30 13 48 30.5t28 50.5l6 54h92l4 -50q0 -29 -8 -55.5t-24 -45.5q-12 -14 -21.5 -22t-20 -14.5t-23 -12.5t-28.5 -14l-96 -48q-40 -20 -40 -55q0 -22 14.5 -38t34.5 -16h291v-99h-306q-30 0 -55 12t-43.5 32t-28.5 47t-10 56z
M396 471v-104h-105v104h105z" />
    <glyph glyph-name="Agrave" unicode="&#xc0;" horiz-adv-x="715" 
d="M615 -1l-55 113h-404l-56 -113h-110l308 641h120l307 -641h-110zM357 531l-155 -325h311zM329 684l-136 140h124l112 -140h-100z" />
    <glyph glyph-name="Aacute" unicode="&#xc1;" horiz-adv-x="715" 
d="M615 -1l-55 113h-404l-56 -113h-110l308 641h120l307 -641h-110zM357 531l-155 -325h311zM416 684h-100l112 140h124z" />
    <glyph glyph-name="Acircumflex" unicode="&#xc2;" horiz-adv-x="715" 
d="M615 -1l-55 113h-404l-56 -113h-110l308 641h120l307 -641h-110zM357 531l-155 -325h311zM442 684l-82 103l-82 -103h-94l113 140h127l112 -140h-94z" />
    <glyph glyph-name="Atilde" unicode="&#xc3;" horiz-adv-x="715" 
d="M615 -1l-55 113h-404l-56 -113h-110l308 641h120l307 -641h-110zM357 531l-155 -325h311zM552 793q-7 -48 -34 -80.5t-71 -32.5q-23 0 -47 8t-47 18q-23 11 -44 19t-35 8q-21 0 -30 -12t-17 -34h-60q3 26 14 47.5t26 36.5t33.5 23t36.5 8q23 0 47 -8.5t47 -19.5l-1 1
q2 -1 3 -2t3 -2q20 -9 38 -16.5t32 -7.5q22 0 32 14.5t15 31.5h59z" />
    <glyph glyph-name="Adieresis" unicode="&#xc4;" horiz-adv-x="715" 
d="M615 -1l-55 113h-404l-56 -113h-110l308 641h120l307 -641h-110zM357 531l-155 -325h311zM207 682v104h102v-104h-102zM411 682v104h102v-104h-102z" />
    <glyph glyph-name="Aring" unicode="&#xc5;" horiz-adv-x="715" 
d="M615 -1l-55 113h-404l-56 -113h-110l308 641h120l307 -641h-110zM357 531l-155 -325h311zM459 786q0 -21 -8 -40t-22.5 -33.5t-33.5 -22.5t-40 -8t-40 8t-33.5 22.5t-22.5 33.5t-8 40t8 40t22.5 33.5t33.5 22.5t40 8t40 -8t33.5 -22.5t22.5 -33.5t8 -40zM413 786
q0 25 -16.5 41.5t-41.5 16.5t-41.5 -16.5t-16.5 -41.5t16.5 -41.5t41.5 -16.5t41.5 16.5t16.5 41.5z" />
    <glyph glyph-name="AE" unicode="&#xc6;" horiz-adv-x="1062" 
d="M736 0q-35 0 -60.5 9t-45.5 24t-35 35.5t-28 43.5h-401l-54 -112h-110l294 640h485l42 -92h-294q-27 0 -27 -22q0 -11 8 -29l53 -116h300l48 -103h-300l63 -138q12 -26 29.5 -37t46.5 -11h283l43 -92h-340zM378 539h-12l-153 -333h311z" />
    <glyph glyph-name="Ccedilla" unicode="&#xc7;" horiz-adv-x="660" 
d="M437 -158q0 -26 -14 -43t-46 -17h-111v61h80q22 0 22 19v12q0 18 -16 19h-87v58l30 49h-76q-94 0 -141.5 40.5t-47.5 129.5v300q0 89 47.5 129.5t141.5 40.5h405v-95h-436q-29 0 -39.5 -15t-10.5 -49v-323q0 -34 10.5 -49t39.5 -15h436v-94h-248l-30 -49h32
q32 0 45.5 -16t13.5 -42v-51z" />
    <glyph glyph-name="Egrave" unicode="&#xc8;" horiz-adv-x="655" 
d="M166 0q-36 0 -62 10.5t-42.5 29.5t-24 45t-7.5 57v356q0 30 7.5 56t24 45t42.5 30t62 11h459v-92h-444q-23 0 -33 -14t-10 -37v-116h450v-103h-450v-138q0 -26 12.5 -37t41.5 -11h433v-92h-459zM319 684l-136 140h124l112 -140h-100z" />
    <glyph glyph-name="Eacute" unicode="&#xc9;" horiz-adv-x="655" 
d="M166 0q-36 0 -62 10.5t-42.5 29.5t-24 45t-7.5 57v356q0 30 7.5 56t24 45t42.5 30t62 11h459v-92h-444q-23 0 -33 -14t-10 -37v-116h450v-103h-450v-138q0 -26 12.5 -37t41.5 -11h433v-92h-459zM346 684h-100l112 140h124z" />
    <glyph glyph-name="Ecircumflex" unicode="&#xca;" horiz-adv-x="655" 
d="M166 0q-36 0 -62 10.5t-42.5 29.5t-24 45t-7.5 57v356q0 30 7.5 56t24 45t42.5 30t62 11h459v-92h-444q-23 0 -33 -14t-10 -37v-116h450v-103h-450v-138q0 -26 12.5 -37t41.5 -11h433v-92h-459zM419 684l-82 103l-82 -103h-94l113 140h127l112 -140h-94z" />
    <glyph glyph-name="Edieresis" unicode="&#xcb;" horiz-adv-x="655" 
d="M166 0q-36 0 -62 10.5t-42.5 29.5t-24 45t-7.5 57v356q0 30 7.5 56t24 45t42.5 30t62 11h459v-92h-444q-23 0 -33 -14t-10 -37v-116h450v-103h-450v-138q0 -26 12.5 -37t41.5 -11h433v-92h-459zM190 682v104h102v-104h-102zM394 682v104h102v-104h-102z" />
    <glyph glyph-name="Igrave" unicode="&#xcc;" horiz-adv-x="183" 
d="M38 0v640h107v-640h-107zM42 684l-136 140h124l112 -140h-100z" />
    <glyph glyph-name="Iacute" unicode="&#xcd;" horiz-adv-x="183" 
d="M38 0v640h107v-640h-107zM140 684h-100l112 140h124z" />
    <glyph glyph-name="Icircumflex" unicode="&#xce;" horiz-adv-x="183" 
d="M38 0v640h107v-640h-107zM172 684l-82 103l-82 -103h-94l113 140h127l112 -140h-94z" />
    <glyph glyph-name="Idieresis" unicode="&#xcf;" horiz-adv-x="183" 
d="M38 0v640h107v-640h-107zM-63 682v104h102v-104h-102zM141 682v104h102v-104h-102z" />
    <glyph glyph-name="Eth" unicode="&#xd0;" horiz-adv-x="777" 
d="M744 142q0 -66 -32.5 -104t-103.5 -38h-577v284h-63v83h63v273h577q70 0 103 -39.5t33 -102.5v-356zM638 500q0 20 -12 34t-32 14h-459v-181h213v-83h-213v-192h449q29 0 41.5 11t12.5 37v360z" />
    <glyph glyph-name="Ntilde" unicode="&#xd1;" horiz-adv-x="754" 
d="M613 0v481q0 36 -14 50.5t-51 14.5h-405v-546h-106v640h527q46 0 76.5 -11t48.5 -32.5t25 -53.5t7 -74v-469h-108zM568 793q-7 -48 -34 -80.5t-71 -32.5q-23 0 -47 8t-47 18q-23 11 -44 19t-35 8q-21 0 -30 -12t-17 -34h-60q3 26 14 47.5t26 36.5t33.5 23t36.5 8
q23 0 47 -8.5t47 -19.5l-1 1q2 -1 3 -2t3 -2q20 -9 38 -16.5t32 -7.5q22 0 32 14.5t15 31.5h59z" />
    <glyph glyph-name="Ograve" unicode="&#xd2;" horiz-adv-x="784" 
d="M754 188q0 -50 -8 -85.5t-28 -58.5q-41 -44 -126 -44h-397q-41 0 -72.5 10.5t-51.5 33.5q-20 21 -29 57t-9 87v263q0 50 8 86.5t28 59.5q20 22 52 32.5t74 10.5h397q41 0 72 -10t51 -33q20 -21 29.5 -58t9.5 -88v-263zM648 507q0 41 -49 41h-412q-48 0 -48 -41v-374
q0 -41 48 -41h412q49 0 49 41v374zM363 684l-136 140h124l112 -140h-100z" />
    <glyph glyph-name="Oacute" unicode="&#xd3;" horiz-adv-x="784" 
d="M754 188q0 -50 -8 -85.5t-28 -58.5q-41 -44 -126 -44h-397q-41 0 -72.5 10.5t-51.5 33.5q-20 21 -29 57t-9 87v263q0 50 8 86.5t28 59.5q20 22 52 32.5t74 10.5h397q41 0 72 -10t51 -33q20 -21 29.5 -58t9.5 -88v-263zM648 507q0 41 -49 41h-412q-48 0 -48 -41v-374
q0 -41 48 -41h412q49 0 49 41v374zM412 684h-100l112 140h124z" />
    <glyph glyph-name="Ocircumflex" unicode="&#xd4;" horiz-adv-x="784" 
d="M754 188q0 -50 -8 -85.5t-28 -58.5q-41 -44 -126 -44h-397q-41 0 -72.5 10.5t-51.5 33.5q-20 21 -29 57t-9 87v263q0 50 8 86.5t28 59.5q20 22 52 32.5t74 10.5h397q41 0 72 -10t51 -33q20 -21 29.5 -58t9.5 -88v-263zM648 507q0 41 -49 41h-412q-48 0 -48 -41v-374
q0 -41 48 -41h412q49 0 49 41v374zM471 684l-82 103l-82 -103h-94l113 140h127l112 -140h-94z" />
    <glyph glyph-name="Otilde" unicode="&#xd5;" horiz-adv-x="784" 
d="M754 188q0 -50 -8 -85.5t-28 -58.5q-41 -44 -126 -44h-397q-41 0 -72.5 10.5t-51.5 33.5q-20 21 -29 57t-9 87v263q0 50 8 86.5t28 59.5q20 22 52 32.5t74 10.5h397q41 0 72 -10t51 -33q20 -21 29.5 -58t9.5 -88v-263zM648 507q0 41 -49 41h-412q-48 0 -48 -41v-374
q0 -41 48 -41h412q49 0 49 41v374zM584 793q-7 -48 -34 -80.5t-71 -32.5q-23 0 -47 8t-47 18q-23 11 -44 19t-35 8q-21 0 -30 -12t-17 -34h-60q3 26 14 47.5t26 36.5t33.5 23t36.5 8q23 0 47 -8.5t47 -19.5l-1 1q2 -1 3 -2t3 -2q20 -9 38 -16.5t32 -7.5q22 0 32 14.5
t15 31.5h59z" />
    <glyph glyph-name="Odieresis" unicode="&#xd6;" horiz-adv-x="784" 
d="M754 188q0 -50 -8 -85.5t-28 -58.5q-41 -44 -126 -44h-397q-41 0 -72.5 10.5t-51.5 33.5q-20 21 -29 57t-9 87v263q0 50 8 86.5t28 59.5q20 22 52 32.5t74 10.5h397q41 0 72 -10t51 -33q20 -21 29.5 -58t9.5 -88v-263zM648 507q0 41 -49 41h-412q-48 0 -48 -41v-374
q0 -41 48 -41h412q49 0 49 41v374zM242 682v104h102v-104h-102zM446 682v104h102v-104h-102z" />
    <glyph glyph-name="multiply" unicode="&#xd7;" horiz-adv-x="600" 
d="M480 0l-180 181l-180 -181l-55 54l181 181l-181 181l55 54l180 -181l180 181l55 -54l-181 -181l181 -181z" />
    <glyph glyph-name="Oslash" unicode="&#xd8;" horiz-adv-x="784" 
d="M754 188q0 -50 -8 -85.5t-28 -58.5q-41 -44 -126 -44h-397q-41 0 -72.5 10.5t-51.5 33.5q-20 21 -29 57t-9 87v263q0 50 8 86.5t28 59.5q20 22 52 32.5t74 10.5h397q41 0 72 -10t51 -33q20 -21 29.5 -58t9.5 -88v-263zM648 507q0 27 -20 36l-365 -451h336q49 0 49 41v374
zM187 548q-48 0 -48 -41v-374q0 -25 20 -36l364 451h-336z" />
    <glyph glyph-name="Ugrave" unicode="&#xd9;" horiz-adv-x="764" 
d="M192 0q-83 0 -120 46t-37 125v469h107v-506q0 -22 8.5 -30.5t30.5 -8.5h432v545h106v-640h-527zM347 684l-136 140h124l112 -140h-100z" />
    <glyph glyph-name="Uacute" unicode="&#xda;" horiz-adv-x="764" 
d="M192 0q-83 0 -120 46t-37 125v469h107v-506q0 -22 8.5 -30.5t30.5 -8.5h432v545h106v-640h-527zM409 684h-100l112 140h124z" />
    <glyph glyph-name="Ucircumflex" unicode="&#xdb;" horiz-adv-x="764" 
d="M192 0q-83 0 -120 46t-37 125v469h107v-506q0 -22 8.5 -30.5t30.5 -8.5h432v545h106v-640h-527zM464 684l-82 103l-82 -103h-94l113 140h127l112 -140h-94z" />
    <glyph glyph-name="Udieresis" unicode="&#xdc;" horiz-adv-x="764" 
d="M192 0q-83 0 -120 46t-37 125v469h107v-506q0 -22 8.5 -30.5t30.5 -8.5h432v545h106v-640h-527zM223 682v104h102v-104h-102zM427 682v104h102v-104h-102z" />
    <glyph glyph-name="Yacute" unicode="&#xdd;" horiz-adv-x="678" 
d="M397 168v-168h-114v170l-293 470h125l229 -367l219 367h125zM376 684h-100l112 140h124z" />
    <glyph glyph-name="Thorn" unicode="&#xde;" horiz-adv-x="695" 
d="M663 276q0 -32 -8 -59t-25.5 -46.5t-46 -30t-68.5 -10.5h-378v-130h-106v640h106v-100h378q40 0 68.5 -10.5t46 -30t25.5 -46.5t8 -59v-118zM557 412q0 20 -8 28t-25 8h-354q-17 0 -25 -8t-8 -28v-154q0 -20 8 -28t25 -8h354q17 0 25 8t8 28v154z" />
    <glyph glyph-name="germandbls" unicode="&#xdf;" horiz-adv-x="703" 
d="M672 142q0 -37 -6 -63.5t-21.5 -44t-41.5 -26t-66 -8.5h-335v92h328q21 0 28.5 9t7.5 29v143q0 20 -7.5 29t-28.5 9h-318v100h284q21 0 28.5 9t7.5 29v61q0 20 -7.5 29t-28.5 9h-324q-20 0 -27.5 -8.5t-7.5 -28.5v-511h-106v498q0 37 6 63.5t21.5 44t41.5 26t66 8.5h331
q40 0 66 -8.5t41.5 -26t22 -44t6.5 -63.5v-28q0 -21 -2 -35.5t-5.5 -23.5t-7.5 -15t-8 -10q16 -5 29 -14q11 -8 22 -25.5t11 -52.5v-152z" />
    <glyph glyph-name="agrave" unicode="&#xe0;" horiz-adv-x="700" 
d="M168 0q-40 0 -66 8.5t-41.5 26t-22 44t-6.5 63.5v27q0 29 6.5 54.5t22 45t41.5 31t66 11.5h395v37q0 16 -7.5 23t-32.5 7h-388v92h376q45 0 75 -10t48.5 -31t26.5 -54.5t8 -81.5v-293h-501zM563 220h-375q-27 0 -38.5 -7t-11.5 -33v-48q0 -26 11.5 -33t38.5 -7h335
q12 0 20 1t12.5 5.5t6 14t1.5 25.5v82zM341 541l-136 140h124l112 -140h-100z" />
    <glyph glyph-name="aacute" unicode="&#xe1;" horiz-adv-x="700" 
d="M168 0q-40 0 -66 8.5t-41.5 26t-22 44t-6.5 63.5v27q0 29 6.5 54.5t22 45t41.5 31t66 11.5h395v37q0 16 -7.5 23t-32.5 7h-388v92h376q45 0 75 -10t48.5 -31t26.5 -54.5t8 -81.5v-293h-501zM563 220h-375q-27 0 -38.5 -7t-11.5 -33v-48q0 -26 11.5 -33t38.5 -7h335
q12 0 20 1t12.5 5.5t6 14t1.5 25.5v82zM401 538h-100l112 140h124z" />
    <glyph glyph-name="acircumflex" unicode="&#xe2;" horiz-adv-x="700" 
d="M168 0q-40 0 -66 8.5t-41.5 26t-22 44t-6.5 63.5v27q0 29 6.5 54.5t22 45t41.5 31t66 11.5h395v37q0 16 -7.5 23t-32.5 7h-388v92h376q45 0 75 -10t48.5 -31t26.5 -54.5t8 -81.5v-293h-501zM563 220h-375q-27 0 -38.5 -7t-11.5 -33v-48q0 -26 11.5 -33t38.5 -7h335
q12 0 20 1t12.5 5.5t6 14t1.5 25.5v82zM434 538l-82 103l-82 -103h-94l113 140h127l112 -140h-94z" />
    <glyph glyph-name="atilde" unicode="&#xe3;" horiz-adv-x="700" 
d="M168 0q-40 0 -66 8.5t-41.5 26t-22 44t-6.5 63.5v27q0 29 6.5 54.5t22 45t41.5 31t66 11.5h395v37q0 16 -7.5 23t-32.5 7h-388v92h376q45 0 75 -10t48.5 -31t26.5 -54.5t8 -81.5v-293h-501zM563 220h-375q-27 0 -38.5 -7t-11.5 -33v-48q0 -26 11.5 -33t38.5 -7h335
q12 0 20 1t12.5 5.5t6 14t1.5 25.5v82zM550 641q-7 -48 -34 -80.5t-72 -32.5q-23 0 -47 8t-47 18q-23 11 -43.5 19t-34.5 8q-22 0 -31.5 -12t-17.5 -34h-58q3 26 13.5 47.5t25.5 36.5t33.5 23t36.5 8q23 0 47 -8.5t47 -19.5l13 -6q18 -8 34 -14.5t28 -6.5q22 0 32 14.5
t16 31.5h59z" />
    <glyph glyph-name="adieresis" unicode="&#xe4;" horiz-adv-x="700" 
d="M168 0q-40 0 -66 8.5t-41.5 26t-22 44t-6.5 63.5v27q0 29 6.5 54.5t22 45t41.5 31t66 11.5h395v37q0 16 -7.5 23t-32.5 7h-388v92h376q45 0 75 -10t48.5 -31t26.5 -54.5t8 -81.5v-293h-501zM563 220h-375q-27 0 -38.5 -7t-11.5 -33v-48q0 -26 11.5 -33t38.5 -7h335
q12 0 20 1t12.5 5.5t6 14t1.5 25.5v82zM206 535v104h102v-104h-102zM410 535v104h102v-104h-102z" />
    <glyph glyph-name="aring" unicode="&#xe5;" horiz-adv-x="700" 
d="M168 0q-40 0 -66 8.5t-41.5 26t-22 44t-6.5 63.5v27q0 29 6.5 54.5t22 45t41.5 31t66 11.5h395v37q0 16 -7.5 23t-32.5 7h-388v92h376q45 0 75 -10t48.5 -31t26.5 -54.5t8 -81.5v-293h-501zM563 220h-375q-27 0 -38.5 -7t-11.5 -33v-48q0 -26 11.5 -33t38.5 -7h335
q12 0 20 1t12.5 5.5t6 14t1.5 25.5v82zM457 640q0 -21 -8 -40t-22.5 -33.5t-33.5 -22.5t-40 -8t-40 8t-33.5 22.5t-22.5 33.5t-8 40t8 40t22.5 33.5t33.5 22.5t40 8t40 -8t33.5 -22.5t22.5 -33.5t8 -40zM411 640q0 25 -16.5 41.5t-41.5 16.5t-41.5 -16.5t-16.5 -41.5
t16.5 -41.5t41.5 -16.5t41.5 16.5t16.5 41.5z" />
    <glyph glyph-name="ae" unicode="&#xe6;" horiz-adv-x="1000" 
d="M554 184v-44q0 -26 12.5 -37t41.5 -11h299v-92h-739q-40 0 -66 8.5t-41.5 26t-22 44t-6.5 63.5v27q0 37 6.5 63.5t22 44t41.5 26t66 8.5h285v37q0 16 -7.5 23t-32.5 7h-296v92h726q40 0 66 -8.5t41.5 -26t22 -44t6.5 -63.5v-144h-425zM879 340q0 20 -7 29t-27 9h-257
q-20 0 -27 -9t-7 -29v-64h325v64zM453 219h-265q-27 0 -38.5 -7t-11.5 -33v-47q0 -26 11.5 -33t38.5 -7h215q17 0 27 2t15 9t6.5 20t1.5 36v60z" />
    <glyph glyph-name="ccedilla" unicode="&#xe7;" horiz-adv-x="581" 
d="M411 -159q0 -26 -14 -43t-46 -17h-111v62h81q21 0 21 19v12q0 19 -20 19h-83v57l30 50h-89q-81 0 -114.5 37t-33.5 109v178q0 34 7 61t24 46t45.5 29t71.5 10h374v-92h-355q-29 0 -41.5 -11t-12.5 -37v-190q0 -26 12.5 -37t41.5 -11h359v-92h-208l-30 -50h33
q32 0 45 -15.5t13 -41.5v-52z" />
    <glyph glyph-name="egrave" unicode="&#xe8;" horiz-adv-x="684" 
d="M138 184v-44q0 -26 12.5 -37t41.5 -11h380v-92h-404q-40 0 -66 8.5t-41.5 25.5t-22 44t-6.5 64v186q0 37 5.5 63.5t20.5 44t41.5 26t68.5 8.5h359q42 0 68.5 -7.5t41.5 -24.5t20.5 -44t5.5 -66v-144h-525zM563 340q0 20 -7 29t-27 9h-357q-20 0 -27 -9t-7 -29v-64h425v64
zM304 541l-136 140h124l112 -140h-100z" />
    <glyph glyph-name="eacute" unicode="&#xe9;" horiz-adv-x="684" 
d="M138 184v-44q0 -26 12.5 -37t41.5 -11h380v-92h-404q-40 0 -66 8.5t-41.5 25.5t-22 44t-6.5 64v186q0 37 5.5 63.5t20.5 44t41.5 26t68.5 8.5h359q42 0 68.5 -7.5t41.5 -24.5t20.5 -44t5.5 -66v-144h-525zM563 340q0 20 -7 29t-27 9h-357q-20 0 -27 -9t-7 -29v-64h425v64
zM401 538h-100l112 140h124z" />
    <glyph glyph-name="ecircumflex" unicode="&#xea;" horiz-adv-x="684" 
d="M138 184v-44q0 -26 12.5 -37t41.5 -11h380v-92h-404q-40 0 -66 8.5t-41.5 25.5t-22 44t-6.5 64v186q0 37 5.5 63.5t20.5 44t41.5 26t68.5 8.5h359q42 0 68.5 -7.5t41.5 -24.5t20.5 -44t5.5 -66v-144h-525zM563 340q0 20 -7 29t-27 9h-357q-20 0 -27 -9t-7 -29v-64h425v64
zM434 538l-82 103l-82 -103h-94l113 140h127l112 -140h-94z" />
    <glyph glyph-name="edieresis" unicode="&#xeb;" horiz-adv-x="684" 
d="M138 184v-44q0 -26 12.5 -37t41.5 -11h380v-92h-404q-40 0 -66 8.5t-41.5 25.5t-22 44t-6.5 64v186q0 37 5.5 63.5t20.5 44t41.5 26t68.5 8.5h359q42 0 68.5 -7.5t41.5 -24.5t20.5 -44t5.5 -66v-144h-525zM563 340q0 20 -7 29t-27 9h-357q-20 0 -27 -9t-7 -29v-64h425v64
zM205 535v104h102v-104h-102zM409 535v104h102v-104h-102z" />
    <glyph glyph-name="igrave" unicode="&#xec;" horiz-adv-x="192" 
d="M43 0v470h106v-470h-106zM51 541l-136 140h124l112 -140h-100z" />
    <glyph glyph-name="iacute" unicode="&#xed;" horiz-adv-x="192" 
d="M43 0v470h106v-470h-106zM137 538h-100l112 140h124z" />
    <glyph glyph-name="icircumflex" unicode="&#xee;" horiz-adv-x="192" 
d="M43 0v470h106v-470h-106zM180 538l-82 103l-82 -103h-94l113 140h127l112 -140h-94z" />
    <glyph glyph-name="idieresis" unicode="&#xef;" horiz-adv-x="192" 
d="M43 0v470h106v-470h-106zM-58 535v104h102v-104h-102zM145 535v104h102v-104h-102z" />
    <glyph glyph-name="eth" unicode="&#xf0;" horiz-adv-x="709" 
d="M672 122q0 -35 -6.5 -58.5t-21 -37.5t-37.5 -20t-57 -6h-395q-34 0 -57 6t-37.5 20t-21 37.5t-6.5 58.5v134q0 35 6.5 58.5t21 37.5t37.5 20t57 6h406v28q0 23 -10.5 33.5t-30.5 18.5l-99 42l-125 -69l-40 67l74 42l-113 53l80 58l130 -58l112 62l41 -67l-62 -34l97 -42
q9 -4 19 -13t18.5 -21t14 -25t5.5 -24v-307zM566 234q0 32 -8.5 42t-34.5 10h-342q-26 0 -34.5 -10t-8.5 -42v-90q0 -32 8.5 -42t34.5 -10h342q26 0 34.5 10t8.5 42v90z" />
    <glyph glyph-name="ntilde" unicode="&#xf1;" horiz-adv-x="707" 
d="M569 0v344q0 18 -5 26t-24 8h-355q-22 0 -30.5 -8.5t-8.5 -30.5v-339h-106v470h516q60 0 89.5 -28.5t29.5 -97.5v-344h-106zM541 641q-7 -48 -34 -80.5t-72 -32.5q-23 0 -47 8t-47 18q-23 11 -43.5 19t-34.5 8q-22 0 -31.5 -12t-17.5 -34h-58q3 26 13.5 47.5t25.5 36.5
t33.5 23t36.5 8q23 0 47 -8.5t47 -19.5l13 -6q18 -8 34 -14.5t28 -6.5q22 0 32 14.5t16 31.5h59z" />
    <glyph glyph-name="ograve" unicode="&#xf2;" horiz-adv-x="704" 
d="M672 142q0 -37 -6.5 -63.5t-22 -44t-41.5 -26t-66 -8.5h-368q-40 0 -66 8.5t-41.5 26t-22 44t-6.5 63.5v186q0 37 6.5 63.5t22 44t41.5 26t66 8.5h368q40 0 66 -8.5t41.5 -26t22 -44t6.5 -63.5v-186zM566 340q0 20 -7.5 29t-28.5 9h-358q-20 0 -27 -9t-7 -29v-210
q0 -20 7 -29t27 -9h358q21 0 28.5 9t7.5 29v210zM314 541l-136 140h124l112 -140h-100z" />
    <glyph glyph-name="oacute" unicode="&#xf3;" horiz-adv-x="704" 
d="M672 142q0 -37 -6.5 -63.5t-22 -44t-41.5 -26t-66 -8.5h-368q-40 0 -66 8.5t-41.5 26t-22 44t-6.5 63.5v186q0 37 6.5 63.5t22 44t41.5 26t66 8.5h368q40 0 66 -8.5t41.5 -26t22 -44t6.5 -63.5v-186zM566 340q0 20 -7.5 29t-28.5 9h-358q-20 0 -27 -9t-7 -29v-210
q0 -20 7 -29t27 -9h358q21 0 28.5 9t7.5 29v210zM371 538h-100l112 140h124z" />
    <glyph glyph-name="ocircumflex" unicode="&#xf4;" horiz-adv-x="704" 
d="M672 142q0 -37 -6.5 -63.5t-22 -44t-41.5 -26t-66 -8.5h-368q-40 0 -66 8.5t-41.5 26t-22 44t-6.5 63.5v186q0 37 6.5 63.5t22 44t41.5 26t66 8.5h368q40 0 66 -8.5t41.5 -26t22 -44t6.5 -63.5v-186zM566 340q0 20 -7.5 29t-28.5 9h-358q-20 0 -27 -9t-7 -29v-210
q0 -20 7 -29t27 -9h358q21 0 28.5 9t7.5 29v210zM434 538l-82 103l-82 -103h-94l113 140h127l112 -140h-94z" />
    <glyph glyph-name="otilde" unicode="&#xf5;" horiz-adv-x="704" 
d="M672 142q0 -37 -6.5 -63.5t-22 -44t-41.5 -26t-66 -8.5h-368q-40 0 -66 8.5t-41.5 26t-22 44t-6.5 63.5v186q0 37 6.5 63.5t22 44t41.5 26t66 8.5h368q40 0 66 -8.5t41.5 -26t22 -44t6.5 -63.5v-186zM566 340q0 20 -7.5 29t-28.5 9h-358q-20 0 -27 -9t-7 -29v-210
q0 -20 7 -29t27 -9h358q21 0 28.5 9t7.5 29v210zM544 641q-7 -48 -34 -80.5t-72 -32.5q-23 0 -47 8t-47 18q-23 11 -43.5 19t-34.5 8q-22 0 -31.5 -12t-17.5 -34h-58q3 26 13.5 47.5t25.5 36.5t33.5 23t36.5 8q23 0 47 -8.5t47 -19.5l13 -6q18 -8 34 -14.5t28 -6.5
q22 0 32 14.5t16 31.5h59z" />
    <glyph glyph-name="odieresis" unicode="&#xf6;" horiz-adv-x="704" 
d="M672 142q0 -37 -6.5 -63.5t-22 -44t-41.5 -26t-66 -8.5h-368q-40 0 -66 8.5t-41.5 26t-22 44t-6.5 63.5v186q0 37 6.5 63.5t22 44t41.5 26t66 8.5h368q40 0 66 -8.5t41.5 -26t22 -44t6.5 -63.5v-186zM566 340q0 20 -7.5 29t-28.5 9h-358q-20 0 -27 -9t-7 -29v-210
q0 -20 7 -29t27 -9h358q21 0 28.5 9t7.5 29v210zM201 535v104h102v-104h-102zM405 535v104h102v-104h-102z" />
    <glyph glyph-name="divide" unicode="&#xf7;" horiz-adv-x="600" 
d="M367 527q0 -28 -19.5 -47.5t-47.5 -19.5t-47.5 19.5t-19.5 47.5t19.5 47.5t47.5 19.5t47.5 -19.5t19.5 -47.5zM65 297v76h470v-76h-470zM367 143q0 -28 -19.5 -47.5t-47.5 -19.5t-47.5 19.5t-19.5 47.5t19.5 47.5t47.5 19.5t47.5 -19.5t19.5 -47.5z" />
    <glyph glyph-name="oslash" unicode="&#xf8;" horiz-adv-x="704" 
d="M672 142q0 -37 -6.5 -63.5t-22 -44t-41.5 -26t-66 -8.5h-368q-40 0 -66 8.5t-41.5 26t-22 44t-6.5 63.5v186q0 37 6.5 63.5t22 44t41.5 26t66 8.5h368q40 0 66 -8.5t41.5 -26t22 -44t6.5 -63.5v-186zM566 340q0 20 -7.5 29t-28.5 9h-11l-230 -286h241q21 0 28.5 9t7.5 29
v210zM172 378q-20 0 -27 -9t-7 -29v-210q0 -20 7 -29t27 -9h8l231 286h-239z" />
    <glyph glyph-name="ugrave" unicode="&#xf9;" horiz-adv-x="708" 
d="M189 0q-83 0 -120 46t-37 125v299h106v-339q0 -22 8.5 -30.5t30.5 -8.5h346q22 0 30.5 8.5t8.5 30.5v339h106v-470h-479zM333 541l-136 140h124l112 -140h-100z" />
    <glyph glyph-name="uacute" unicode="&#xfa;" horiz-adv-x="708" 
d="M189 0q-83 0 -120 46t-37 125v299h106v-339q0 -22 8.5 -30.5t30.5 -8.5h346q22 0 30.5 8.5t8.5 30.5v339h106v-470h-479zM380 538h-100l112 140h124z" />
    <glyph glyph-name="ucircumflex" unicode="&#xfb;" horiz-adv-x="708" 
d="M189 0q-83 0 -120 46t-37 125v299h106v-339q0 -22 8.5 -30.5t30.5 -8.5h346q22 0 30.5 8.5t8.5 30.5v339h106v-470h-479zM443 538l-82 103l-82 -103h-94l113 140h127l112 -140h-94z" />
    <glyph glyph-name="udieresis" unicode="&#xfc;" horiz-adv-x="708" 
d="M189 0q-83 0 -120 46t-37 125v299h106v-339q0 -22 8.5 -30.5t30.5 -8.5h346q22 0 30.5 8.5t8.5 30.5v339h106v-470h-479zM194 535v104h102v-104h-102zM398 535v104h102v-104h-102z" />
    <glyph glyph-name="yacute" unicode="&#xfd;" horiz-adv-x="690" 
d="M658 -40q0 -67 -34.5 -102.5t-99.5 -35.5h-136v92h116q30 0 39 8.5t9 25.5v52h-363q-83 0 -120 46t-37 125v299h106v-339q0 -22 8.5 -30.5t30.5 -8.5h347q17 0 22.5 6t5.5 34v338h106v-510zM371 538h-100l112 140h124z" />
    <glyph glyph-name="thorn" unicode="&#xfe;" horiz-adv-x="703" 
d="M671 146q0 -32 -8 -59t-25.5 -46.5t-46 -30t-68.5 -10.5h-378v-178h-105v818h105v-170h378q40 0 68.5 -10.5t46 -30t25.5 -46.5t8 -59v-178zM565 342q0 20 -8 28t-25 8h-354q-17 0 -25 -8t-8 -28v-214q0 -20 8 -28t25 -8h354q17 0 25 8t8 28v214z" />
    <glyph glyph-name="ydieresis" unicode="&#xff;" horiz-adv-x="690" 
d="M658 -40q0 -67 -34.5 -102.5t-99.5 -35.5h-136v92h116q30 0 39 8.5t9 25.5v52h-363q-83 0 -120 46t-37 125v299h106v-339q0 -22 8.5 -30.5t30.5 -8.5h347q17 0 22.5 6t5.5 34v338h106v-510zM198 535v104h102v-104h-102zM402 535v104h102v-104h-102z" />
    <glyph glyph-name="dotlessi" unicode="&#x131;" horiz-adv-x="192" 
d="M43 0v470h106v-470h-106z" />
    <glyph glyph-name="Lslash" unicode="&#x141;" horiz-adv-x="592" 
d="M38 0v224l-68 -30v72l68 30v344h107v-296l253 112v-72l-253 -112v-180h447v-92h-554z" />
    <glyph glyph-name="lslash" unicode="&#x142;" horiz-adv-x="196" 
d="M151 331v-331h-106v277l-67 -34v66l67 34v297h106v-242l75 38v-67z" />
    <glyph glyph-name="OE" unicode="&#x152;" horiz-adv-x="977" 
d="M192 0q-83 0 -122 43q-40 41 -40 145v263q0 101 40 144q41 45 122 45h755v-92h-305q-23 0 -33 -14t-10 -37v-116h311v-103h-311v-138q0 -26 12.5 -37t41.5 -11h294v-92h-755zM490 507q0 41 -48 41h-240q-48 0 -48 -41v-374q0 -41 48 -41h240q48 0 48 41v374z" />
    <glyph glyph-name="oe" unicode="&#x153;" horiz-adv-x="1000" 
d="M554 184v-44q0 -26 12.5 -37t41.5 -11h299v-92h-739q-40 0 -66 8.5t-41.5 26t-22 44t-6.5 63.5v186q0 37 6.5 63.5t22 44t41.5 26t66 8.5h675q40 0 66 -8.5t41.5 -26t22 -44t6.5 -63.5v-144h-425zM879 340q0 20 -7 29t-27 9h-257q-20 0 -27 -9t-7 -29v-64h325v64z
M456 340q0 20 -7.5 29t-28.5 9h-248q-20 0 -27 -9t-7 -29v-210q0 -20 7 -29t27 -9h248q21 0 28.5 9t7.5 29v210z" />
    <glyph glyph-name="Scaron" unicode="&#x160;" horiz-adv-x="680" 
d="M670 187q0 -39 -14.5 -73t-40 -59.5t-59.5 -40.5t-73 -15h-434v97h425q19 0 36 7.5t30 20t20.5 29t7.5 35.5q0 38 -27 63.5t-65 25.5h-281q-37 0 -70.5 12.5t-59 36.5t-40.5 58t-15 78q0 37 14 69.5t38 56.5t56.5 38t69.5 14h428v-94h-420q-35 0 -58 -25.5t-23 -60.5
t23.5 -58t58.5 -23h280q39 0 74 -13.5t61.5 -38t42 -60t15.5 -80.5zM407 683h-127l-112 140h94l82 -103l82 103h94z" />
    <glyph glyph-name="scaron" unicode="&#x161;" horiz-adv-x="635" 
d="M613 143q0 -30 -11 -56t-30 -45.5t-45 -30.5t-55 -11h-416v93h413q20 0 34.5 14.5t14.5 35.5q0 20 -14.5 33.5t-34.5 13.5h-304q-29 0 -54 11t-44 30t-30 44t-11 54t10.5 54.5t28.5 44.5t42.5 30t53.5 11h411v-92h-406q-18 0 -31 -14.5t-13 -33.5q0 -18 13 -31t31 -13
h308q30 0 55 -10.5t44 -29.5t29.5 -45t10.5 -57zM373 537h-127l-112 140h94l82 -103l82 103h94z" />
    <glyph glyph-name="Ydieresis" unicode="&#x178;" horiz-adv-x="678" 
d="M397 168v-168h-114v170l-293 470h125l229 -367l219 367h125zM185 682v104h102v-104h-102zM389 682v104h102v-104h-102z" />
    <glyph glyph-name="Zcaron" unicode="&#x17d;" horiz-adv-x="631" 
d="M23 0v92l448 456h-440v92h576v-96l-441 -452h443v-92h-586zM375 683h-127l-112 140h94l82 -103l82 103h94z" />
    <glyph glyph-name="zcaron" unicode="&#x17e;" horiz-adv-x="617" 
d="M41 0v90l376 288h-371v92h530v-90l-379 -288h380v-92h-536zM378 537h-127l-112 140h94l82 -103l82 103h94z" />
    <glyph glyph-name="florin" unicode="&#x192;" horiz-adv-x="383" 
d="M449 548h-87q-23 0 -33 -8.5t-14 -23.5l-28 -109h114l-24 -92h-114l-98 -367q-7 -25 -20 -47.5t-33.5 -40t-48.5 -28t-64 -10.5h-109l24 92h87q23 0 33 8.5t14 23.5l98 369h-105l24 92h105l28 107q6 25 19.5 47.5t33.5 40t48.5 28t64.5 10.5h109z" />
    <glyph glyph-name="uni02BB" unicode="&#x2bb;" horiz-adv-x="255" 
d="M146 640h36l-34 -65h29v-104h-102v99z" />
    <glyph glyph-name="afii57929" unicode="&#x2bc;" horiz-adv-x="255" 
d="M111 471h-36l34 65h-29v104h102v-99z" />
    <glyph glyph-name="circumflex" unicode="&#x2c6;" horiz-adv-x="333" 
d="M248 538l-82 103l-82 -103h-94l113 140h127l112 -140h-94z" />
    <glyph glyph-name="caron" unicode="&#x2c7;" horiz-adv-x="333" 
d="M230 538h-127l-112 140h94l82 -103l82 103h94z" />
    <glyph glyph-name="breve" unicode="&#x2d8;" horiz-adv-x="333" 
d="M159 527q-53 0 -87.5 17t-55 42.5t-29.5 54.5t-11 52h64q1 -14 9 -31t22 -32t36 -25t52 -10t52 10t36.5 25t22 32t9.5 31h64q-2 -23 -11 -52t-30 -54.5t-55.5 -42.5t-87.5 -17z" />
    <glyph glyph-name="dotaccent" unicode="&#x2d9;" horiz-adv-x="333" 
d="M119 536v104h102v-104h-102z" />
    <glyph glyph-name="ring" unicode="&#x2da;" horiz-adv-x="333" 
d="M270 640q0 -21 -8 -40t-22.5 -33.5t-33.5 -22.5t-40 -8t-40 8t-33.5 22.5t-22.5 33.5t-8 40t8 40t22.5 33.5t33.5 22.5t40 8t40 -8t33.5 -22.5t22.5 -33.5t8 -40zM224 640q0 25 -16.5 41.5t-41.5 16.5t-41.5 -16.5t-16.5 -41.5t16.5 -41.5t41.5 -16.5t41.5 16.5
t16.5 41.5z" />
    <glyph glyph-name="ogonek" unicode="&#x2db;" horiz-adv-x="333" 
d="M140 -109q-12 -19 -3 -33.5t29 -14.5h106v-62h-106q-51 0 -75 23.5t-24 56.5q0 34 23 68l87 126l48 -32z" />
    <glyph glyph-name="tilde" unicode="&#x2dc;" horiz-adv-x="333" 
d="M359 647q-7 -48 -34 -80.5t-71 -32.5q-23 0 -47 8t-47 18q-23 11 -44 19t-35 8q-21 0 -30 -12t-17 -34h-60q3 26 14 47.5t26 36.5t33.5 23t36.5 8q23 0 47 -8.5t47 -19.5q1 -1 2 -1q1 -1 3 -2q20 -9 38 -16.5t32 -7.5q22 0 32 14.5t15 31.5h59z" />
    <glyph glyph-name="hungarumlaut" unicode="&#x2dd;" horiz-adv-x="333" 
d="M300 538h-100l112 140h124zM89 538h-100l112 140h124z" />
    <glyph glyph-name="gravecomb" unicode="&#x300;" 
d="M-391 541l-136 140h124l112 -140h-100z" />
    <glyph glyph-name="acutecomb" unicode="&#x301;" 
d="M-334 538h-100l112 140h124z" />
    <glyph glyph-name="uni0302" unicode="&#x302;" 
d="M-271 538l-82 103l-82 -103h-94l113 140h127l112 -140h-94z" />
    <glyph glyph-name="tildecomb" unicode="&#x303;" 
d="M-161 641q-7 -48 -34 -80.5t-72 -32.5q-23 0 -47 8t-47 18q-23 11 -43.5 19t-34.5 8q-22 0 -31.5 -12t-17.5 -34h-58q3 26 13.5 47.5t25.5 36.5t33.5 23t36.5 8q23 0 47 -8.5t47 -19.5l13 -6q18 -8 34 -14.5t28 -6.5q22 0 32 14.5t16 31.5h59z" />
    <glyph glyph-name="uni0304" unicode="&#x304;" 
d="M-355 535v60h376v-60h-376z" />
    <glyph glyph-name="uni0306" unicode="&#x306;" 
d="M-170 526q-53 0 -87.5 17t-55 42.5t-29.5 54.5t-11 52h64q1 -14 9 -31t22 -32t36 -25t52 -10t52 10t36.5 25t22 32t9.5 31h64q-2 -23 -11 -52t-30 -54.5t-55.5 -42.5t-87.5 -17z" />
    <glyph glyph-name="uni0307" unicode="&#x307;" 
d="M-215 536v104h102v-104h-102z" />
    <glyph glyph-name="uni0308" unicode="&#x308;" 
d="M-300 535v104h102v-104h-102zM-504 535v104h102v-104h-102z" />
    <glyph glyph-name="uni030A" unicode="&#x30a;" 
d="M-244 640q0 -21 -8 -40t-22.5 -33.5t-33.5 -22.5t-40 -8t-40 8t-33.5 22.5t-22.5 33.5t-8 40t8 40t22.5 33.5t33.5 22.5t40 8t40 -8t33.5 -22.5t22.5 -33.5t8 -40zM-290 640q0 25 -16.5 41.5t-41.5 16.5t-41.5 -16.5t-16.5 -41.5t16.5 -41.5t41.5 -16.5t41.5 16.5
t16.5 41.5z" />
    <glyph glyph-name="uni030B" unicode="&#x30b;" 
d="M-34 538h-100l112 140h124zM-245 538h-100l112 140h124z" />
    <glyph glyph-name="uni030C" unicode="&#x30c;" 
d="M-240 537h-127l-112 140h94l82 -103l82 103h94z" />
    <glyph glyph-name="uni0312" unicode="&#x312;" 
d="M-311 705h36l-34 -65h29v-104h-102v99z" />
    <glyph glyph-name="uni0313" unicode="&#x313;" 
d="M27 471h-76v169h102z" />
    <glyph glyph-name="uni0326" unicode="&#x326;" 
d="M-371 -219h-36l34 65h-29v104h102v-99z" />
    <glyph glyph-name="uni0327" unicode="&#x327;" 
d="M-81 -158q0 -26 -14 -43t-46 -17h-111v62h81q21 0 21 19v12q0 19 -21 19h-82v57l30 50h81l-30 -50h33q32 0 45 -15.5t13 -41.5v-52z" />
    <glyph glyph-name="uni0328" unicode="&#x328;" 
d="M-206 -109q-12 -19 -3 -33.5t29 -14.5h106v-62h-106q-51 0 -75 23.5t-24 56.5q0 34 23 68l87 126l48 -32z" />
    <glyph glyph-name="uni0335" unicode="&#x335;" 
d="M-188 682v60h376v-60h-376z" />
    <glyph glyph-name="uni0336" unicode="&#x336;" 
d="M-419 295v75h838v-75h-838z" />
    <glyph glyph-name="Delta" unicode="&#x394;" horiz-adv-x="617" 
d="M-10 0l265 638h111l261 -638h-637zM312 504l-177 -413h348z" />
    <glyph glyph-name="Omega" unicode="&#x3a9;" horiz-adv-x="833" 
d="M561 0v90q11 0 17 4.5t11 10.5l55 79q4 5 4.5 12t0.5 12v299q0 41 -48 41h-369q-48 0 -48 -41v-299q0 -5 0.5 -11.5t4.5 -12.5l55 -79q5 -6 11 -10.5t17 -4.5v-90h-240v92h121q-20 15 -34 27t-23 25t-13.5 28.5t-4.5 35.5v243q0 51 9.5 88.5t29.5 58.5q20 23 51 32.5
t72 9.5h353q42 0 72.5 -9.5t50.5 -32.5q20 -21 30 -58.5t10 -88.5v-242q0 -41 -18 -64.5t-57 -52.5h120v-92h-240z" />
    <glyph glyph-name="mu" unicode="&#x3bc;" horiz-adv-x="704" 
d="M147 0v-178h-106v648h106v-339q0 -22 8.5 -30.5t30.5 -8.5h384v378h106v-470h-529z" />
    <glyph glyph-name="pi" unicode="&#x3c0;" horiz-adv-x="729" 
d="M628 378v-259q0 -12 3 -19.5t12 -7.5h60v-92h-90q-39 0 -66 24q-13 11 -20.5 29t-7.5 49v276h-314v-378h-109v378h-80v92h687v-92h-75z" />
    <glyph glyph-name="uni2007" unicode="&#x2007;" horiz-adv-x="746" 
 />
    <glyph glyph-name="uni2008" unicode="&#x2008;" horiz-adv-x="252" 
 />
    <glyph glyph-name="uni200B" unicode="&#x200b;" horiz-adv-x="0" 
 />
    <glyph glyph-name="endash" unicode="&#x2013;" horiz-adv-x="573" 
d="M37 295v75h496v-75h-496z" />
    <glyph glyph-name="emdash" unicode="&#x2014;" horiz-adv-x="910" 
d="M37 295v75h838v-75h-838z" />
    <glyph glyph-name="quoteleft" unicode="&#x2018;" horiz-adv-x="255" 
d="M146 640h36l-34 -65h29v-104h-102v99z" />
    <glyph glyph-name="quoteright" unicode="&#x2019;" horiz-adv-x="255" 
d="M111 471h-36l34 65h-29v104h102v-99z" />
    <glyph glyph-name="quotesinglbase" unicode="&#x201a;" horiz-adv-x="255" 
d="M111 -65h-36l34 65h-29v104h102v-99z" />
    <glyph glyph-name="quotedblleft" unicode="&#x201c;" horiz-adv-x="392" 
d="M281 640h36l-34 -65h29v-104h-102v99zM146 640h36l-34 -65h29v-104h-102v99z" />
    <glyph glyph-name="quotedblright" unicode="&#x201d;" horiz-adv-x="392" 
d="M111 471h-36l34 65h-29v104h102v-99zM246 471h-36l34 65h-29v104h102v-99z" />
    <glyph glyph-name="quotedblbase" unicode="&#x201e;" horiz-adv-x="392" 
d="M111 -66h-36l34 65h-29v104h102v-99zM246 -66h-36l34 65h-29v104h102v-99z" />
    <glyph glyph-name="dagger" unicode="&#x2020;" horiz-adv-x="576" 
d="M335 317v-495h-99v495h-185v98h185v225h99v-225h190v-98h-190z" />
    <glyph glyph-name="daggerdbl" unicode="&#x2021;" horiz-adv-x="576" 
d="M335 317v-173h186v-98h-186v-224h-99v224h-189v98h189v173h-185v98h185v225h99v-225h190v-98h-190z" />
    <glyph glyph-name="bullet" unicode="&#x2022;" horiz-adv-x="475" 
d="M360 320q0 -23 -8.5 -43t-23.5 -35t-35 -23.5t-43 -8.5t-43 8.5t-35 23.5t-23.5 35t-8.5 43t8.5 43t23.5 35t35 23.5t43 8.5t43 -8.5t35 -23.5t23.5 -35t8.5 -43z" />
    <glyph glyph-name="ellipsis" unicode="&#x2026;" horiz-adv-x="755" 
d="M578 0v104h102v-104h-102zM326 0v104h102v-104h-102zM75 0v104h102v-104h-102z" />
    <glyph glyph-name="perthousand" unicode="&#x2030;" horiz-adv-x="1137" 
d="M1101 90q0 -50 -22.5 -70t-80.5 -20h-91q-57 0 -79.5 20t-22.5 70v153q0 50 22.5 70t79.5 20h91q58 0 80.5 -20t22.5 -70v-153zM763 90q0 -50 -22.5 -70t-80.5 -20h-91q-58 0 -80.5 20t-22.5 70v153q0 50 22.5 70t80.5 20h91q58 0 80.5 -20t22.5 -70v-153zM255 0h-84
l365 640h84zM333 397q0 -51 -22.5 -71t-80.5 -20h-91q-58 0 -80.5 20t-22.5 71v153q0 50 22.5 70t80.5 20h91q58 0 80.5 -20t22.5 -70v-153zM1010 239q0 11 -3 14t-9 3h-90q-6 0 -9 -3t-3 -14v-146q0 -11 3 -13.5t9 -2.5h90q7 0 9.5 2.5t2.5 13.5v146zM672 239q0 11 -3 14
t-9 3h-90q-6 0 -9 -3t-3 -14v-146q0 -11 3 -13.5t9 -2.5h90q6 0 9 2.5t3 13.5v146zM241 546q0 11 -2.5 14t-9.5 3h-90q-5 0 -8.5 -3t-3.5 -14v-147q0 -10 3 -13t9 -3h90q7 0 9.5 2.5t2.5 13.5v147z" />
    <glyph glyph-name="guilsinglleft" unicode="&#x2039;" horiz-adv-x="285" 
d="M142 54l-97 176l97 186h98l-97 -186l97 -176h-98z" />
    <glyph glyph-name="guilsinglright" unicode="&#x203a;" horiz-adv-x="285" 
d="M143 54h-98l97 176l-97 186h98l97 -186z" />
    <glyph glyph-name="fraction" unicode="&#x2044;" horiz-adv-x="167" 
d="M-86 0h-99l440 640h98z" />
    <glyph glyph-name="Euro" unicode="&#x20ac;" horiz-adv-x="641" 
d="M591 545h-336q-29 0 -39.5 -15t-10.5 -49v-38h361l-24 -92h-336v-58h322l-24 -92h-299v-43q0 -34 10.5 -49t39.5 -15h356v-94h-336q-94 0 -136.5 40.5t-42.5 129.5v31h-97l24 92h73v58h-97l24 92h73v27q0 89 47.5 129.5t141.5 40.5h338z" />
    <glyph glyph-name="trademark" unicode="&#x2122;" horiz-adv-x="613" 
d="M518 377v183h-6l-63 -183h-48l-63 183h-6v-183h-63v263h94l64 -167l60 167h94v-263h-63zM164 579v-202h-67v202h-73v61h214v-61h-74z" />
    <glyph glyph-name="uni2126" unicode="&#x2126;" horiz-adv-x="833" 
d="M561 0v90q11 0 17 4.5t11 10.5l55 79q4 5 4.5 12t0.5 12v299q0 41 -48 41h-369q-48 0 -48 -41v-299q0 -5 0.5 -11.5t4.5 -12.5l55 -79q5 -6 11 -10.5t17 -4.5v-90h-240v92h121q-20 15 -34 27t-23 25t-13.5 28.5t-4.5 35.5v243q0 51 9.5 88.5t29.5 58.5q20 23 51 32.5
t72 9.5h353q42 0 72.5 -9.5t50.5 -32.5q20 -21 30 -58.5t10 -88.5v-242q0 -41 -18 -64.5t-57 -52.5h120v-92h-240z" />
    <glyph glyph-name="partialdiff" unicode="&#x2202;" horiz-adv-x="709" 
d="M672 122q0 -35 -6.5 -58.5t-21 -37.5t-37.5 -20t-57 -6h-395q-34 0 -57 6t-37.5 20t-21 37.5t-6.5 58.5v134q0 35 6.5 58.5t21 37.5t37.5 20t57 6h406v24q0 23 -10.5 33.5t-30.5 18.5l-263 113l40 84l318 -139q9 -4 19 -13t18.5 -21t14 -25t5.5 -24v-307zM566 234
q0 32 -8.5 42t-34.5 10h-342q-26 0 -34.5 -10t-8.5 -42v-90q0 -32 8.5 -42t34.5 -10h342q26 0 34.5 10t8.5 42v90z" />
    <glyph glyph-name="uni2206" unicode="&#x2206;" horiz-adv-x="617" 
d="M-10 0l265 638h111l261 -638h-637zM312 504l-177 -413h348z" />
    <glyph glyph-name="product" unicode="&#x220f;" horiz-adv-x="763" 
d="M719 546l-81 -1v-450h88v-95h-194v545h-293v-545h-195v95h89v450l-96 1v94h712z" />
    <glyph glyph-name="summation" unicode="&#x2211;" horiz-adv-x="638" 
d="M608 0h-578v92l163 229l-163 227v92h564v-94h-442l160 -225l-160 -227h456v-94z" />
    <glyph glyph-name="minus" unicode="&#x2212;" horiz-adv-x="600" 
d="M65 197v76h470v-76h-470z" />
    <glyph glyph-name="uni2219" unicode="&#x2219;" horiz-adv-x="600" 
d="M367 236q0 -28 -19.5 -47.5t-47.5 -19.5t-47.5 19.5t-19.5 47.5t19.5 47.5t47.5 19.5t47.5 -19.5t19.5 -47.5z" />
    <glyph glyph-name="radical" unicode="&#x221a;" horiz-adv-x="757" 
d="M407 0h-97l-210 378h-85v92h141l204 -360l299 530h107z" />
    <glyph glyph-name="infinity" unicode="&#x221e;" horiz-adv-x="837" 
d="M777 281q0 -59 -26.5 -87t-95.5 -28h-99q-50 0 -72.5 13.5t-33.5 32.5l-31 53l-32 -53q-12 -20 -34 -33t-72 -13h-100q-68 0 -94.5 28t-26.5 87v101q0 58 26.5 86.5t94.5 28.5h100q25 0 42 -3.5t29 -9.5t20.5 -14.5t14.5 -19.5l31 -52l32 52q7 11 15 19.5t20 14.5t29 9.5
t42 3.5h99q69 0 95.5 -28t26.5 -87v-101zM698 390q0 21 -8 29t-35 8h-104q-15 0 -25.5 -7t-18.5 -18l-46 -70l46 -71q8 -11 18.5 -18t25.5 -7h104q27 0 35 8t8 29v117zM376 332l-46 70q-8 11 -18.5 18t-25.5 7h-104q-27 0 -35 -8t-8 -29v-117q0 -21 8 -29t35 -8h104
q15 0 25.5 7t18.5 18z" />
    <glyph glyph-name="integral" unicode="&#x222b;" horiz-adv-x="383" 
d="M449 548h-87q-23 0 -33 -8.5t-14 -23.5l-150 -568q-6 -25 -19.5 -47.5t-33.5 -40t-48.5 -28t-64.5 -10.5h-109l24 92h87q23 0 33 8.5t14 23.5l150 568q6 25 19.5 47.5t33.5 40t48.5 28t64.5 10.5h109z" />
    <glyph glyph-name="approxequal" unicode="&#x2248;" horiz-adv-x="600" 
d="M518 401q-40 -55 -113 -55q-26 0 -52 9.5t-49 23.5q-21 12 -44.5 22.5t-55.5 10.5q-31 0 -66 -11.5t-56 -28.5v66q21 25 52 45t73 20q31 0 52.5 -8.5t47.5 -21.5t55.5 -24.5t48.5 -11.5q28 0 55 7t52 30v-73zM518 206q-40 -55 -113 -55q-26 0 -52 9.5t-49 23.5
q-21 12 -44.5 22.5t-55.5 10.5q-31 0 -66 -11.5t-56 -28.5v66q21 25 52 45t73 20q31 0 52.5 -8.5t47.5 -21.5t55.5 -24.5t48.5 -11.5q28 0 55 7t52 30v-73z" />
    <glyph glyph-name="notequal" unicode="&#x2260;" horiz-adv-x="600" 
d="M290 199l-40 -84h-93l40 84h-132v76h168l55 118h-223v76h259l37 79h94l-37 -79h117v-76h-153l-56 -118h209v-76h-245z" />
    <glyph glyph-name="lessequal" unicode="&#x2264;" horiz-adv-x="600" 
d="M65 309v68l470 149v-83l-321 -100l321 -100v-82zM65 0v76h470v-76h-470z" />
    <glyph glyph-name="greaterequal" unicode="&#x2265;" horiz-adv-x="600" 
d="M65 161v82l321 100l-321 100v83l470 -149v-68zM65 0v76h470v-76h-470z" />
    <glyph glyph-name="dotmath" unicode="&#x22c5;" horiz-adv-x="600" 
d="M367 236q0 -28 -19.5 -47.5t-47.5 -19.5t-47.5 19.5t-19.5 47.5t19.5 47.5t47.5 19.5t47.5 -19.5t19.5 -47.5z" />
    <glyph glyph-name="lozenge" unicode="&#x25ca;" horiz-adv-x="516" 
d="M306 -4h-96l-195 322l195 322h96l195 -322zM258 547l-138 -229l138 -229l138 229z" />
    <glyph glyph-name="uniFEFF" unicode="&#xfeff;" horiz-adv-x="0" 
 />
    <glyph glyph-name="glyph277" 
d="M-422 684l-136 140h124l112 -140h-100z" />
    <glyph glyph-name="glyph278" 
d="M-373 684h-100l112 140h124z" />
    <glyph glyph-name="glyph279" 
d="M-314 684l-82 103l-82 -103h-94l113 140h127l112 -140h-94z" />
    <glyph glyph-name="glyph280" 
d="M-201 793q-7 -48 -34 -80.5t-71 -32.5q-23 0 -47 8t-47 18q-23 11 -44 19t-35 8q-21 0 -30 -12t-17 -34h-60q3 26 14 47.5t26 36.5t33.5 23t36.5 8q23 0 47 -8.5t47 -19.5l-1 1q2 -1 3 -2t3 -2q20 -9 38 -16.5t32 -7.5q22 0 32 14.5t15 31.5h59z" />
    <glyph glyph-name="glyph281" 
d="M-64 786q0 -21 -8 -40t-22.5 -33.5t-33.5 -22.5t-40 -8t-40 8t-33.5 22.5t-22.5 33.5t-8 40t8 40t22.5 33.5t33.5 22.5t40 8t40 -8t33.5 -22.5t22.5 -33.5t8 -40zM-110 786q0 25 -16.5 41.5t-41.5 16.5t-41.5 -16.5t-16.5 -41.5t16.5 -41.5t41.5 -16.5t41.5 16.5
t16.5 41.5z" />
    <glyph glyph-name="glyph282" 
d="M-257 683h-127l-112 140h94l82 -103l82 103h94z" />
    <glyph glyph-name="glyph283" 
d="M-543 682v104h102v-104h-102z" />
    <glyph glyph-name="glyph284" 
d="M-504 535v104h102v-104h-102z" />
    </font>
</defs>
</svg>
